G04 #@! TF.GenerationSoftware,KiCad,Pcbnew,(5.1.4)-1*
G04 #@! TF.CreationDate,2020-07-21T12:04:11+10:00*
G04 #@! TF.ProjectId,STLink2,53544c69-6e6b-4322-9e6b-696361645f70,rev?*
G04 #@! TF.SameCoordinates,Original*
G04 #@! TF.FileFunction,Legend,Top*
G04 #@! TF.FilePolarity,Positive*
%FSLAX46Y46*%
G04 Gerber Fmt 4.6, Leading zero omitted, Abs format (unit mm)*
G04 Created by KiCad (PCBNEW (5.1.4)-1) date 2020-07-21 12:04:11*
%MOMM*%
%LPD*%
G04 APERTURE LIST*
%ADD10C,0.100000*%
%ADD11C,0.150000*%
%ADD12C,0.125000*%
%ADD13C,0.120000*%
%ADD14C,0.075000*%
%ADD15C,0.062500*%
G04 APERTURE END LIST*
D10*
X43180000Y-41910000D02*
X43180000Y-42545000D01*
X43180000Y-46990000D02*
X43180000Y-41910000D01*
X86995000Y-46990000D02*
X43180000Y-46990000D01*
X86995000Y-24765000D02*
X86995000Y-46990000D01*
X43180000Y-24765000D02*
X86995000Y-24765000D01*
X43180000Y-42545000D02*
X43180000Y-24765000D01*
D11*
X66136190Y-26973571D02*
X66250476Y-27009285D01*
X66440952Y-27009285D01*
X66517142Y-26973571D01*
X66555238Y-26937857D01*
X66593333Y-26866428D01*
X66593333Y-26795000D01*
X66555238Y-26723571D01*
X66517142Y-26687857D01*
X66440952Y-26652142D01*
X66288571Y-26616428D01*
X66212380Y-26580714D01*
X66174285Y-26545000D01*
X66136190Y-26473571D01*
X66136190Y-26402142D01*
X66174285Y-26330714D01*
X66212380Y-26295000D01*
X66288571Y-26259285D01*
X66479047Y-26259285D01*
X66593333Y-26295000D01*
X66821904Y-26259285D02*
X67279047Y-26259285D01*
X67050476Y-27009285D02*
X67050476Y-26259285D01*
X67545714Y-26723571D02*
X68155238Y-26723571D01*
X68917142Y-27009285D02*
X68536190Y-27009285D01*
X68536190Y-26259285D01*
X69183809Y-27009285D02*
X69183809Y-26509285D01*
X69183809Y-26259285D02*
X69145714Y-26295000D01*
X69183809Y-26330714D01*
X69221904Y-26295000D01*
X69183809Y-26259285D01*
X69183809Y-26330714D01*
X69564761Y-26509285D02*
X69564761Y-27009285D01*
X69564761Y-26580714D02*
X69602857Y-26545000D01*
X69679047Y-26509285D01*
X69793333Y-26509285D01*
X69869523Y-26545000D01*
X69907619Y-26616428D01*
X69907619Y-27009285D01*
X70288571Y-27009285D02*
X70288571Y-26259285D01*
X70364761Y-26723571D02*
X70593333Y-27009285D01*
X70593333Y-26509285D02*
X70288571Y-26795000D01*
X71431428Y-26259285D02*
X71698095Y-27009285D01*
X71964761Y-26259285D01*
X72193333Y-26330714D02*
X72231428Y-26295000D01*
X72307619Y-26259285D01*
X72498095Y-26259285D01*
X72574285Y-26295000D01*
X72612380Y-26330714D01*
X72650476Y-26402142D01*
X72650476Y-26473571D01*
X72612380Y-26580714D01*
X72155238Y-27009285D01*
X72650476Y-27009285D01*
X74060000Y-26937857D02*
X74021904Y-26973571D01*
X73907619Y-27009285D01*
X73831428Y-27009285D01*
X73717142Y-26973571D01*
X73640952Y-26902142D01*
X73602857Y-26830714D01*
X73564761Y-26687857D01*
X73564761Y-26580714D01*
X73602857Y-26437857D01*
X73640952Y-26366428D01*
X73717142Y-26295000D01*
X73831428Y-26259285D01*
X73907619Y-26259285D01*
X74021904Y-26295000D01*
X74060000Y-26330714D01*
X74517142Y-27009285D02*
X74440952Y-26973571D01*
X74402857Y-26902142D01*
X74402857Y-26259285D01*
X74936190Y-27009285D02*
X74860000Y-26973571D01*
X74821904Y-26937857D01*
X74783809Y-26866428D01*
X74783809Y-26652142D01*
X74821904Y-26580714D01*
X74860000Y-26545000D01*
X74936190Y-26509285D01*
X75050476Y-26509285D01*
X75126666Y-26545000D01*
X75164761Y-26580714D01*
X75202857Y-26652142D01*
X75202857Y-26866428D01*
X75164761Y-26937857D01*
X75126666Y-26973571D01*
X75050476Y-27009285D01*
X74936190Y-27009285D01*
X75545714Y-26509285D02*
X75545714Y-27009285D01*
X75545714Y-26580714D02*
X75583809Y-26545000D01*
X75660000Y-26509285D01*
X75774285Y-26509285D01*
X75850476Y-26545000D01*
X75888571Y-26616428D01*
X75888571Y-27009285D01*
X76574285Y-26973571D02*
X76498095Y-27009285D01*
X76345714Y-27009285D01*
X76269523Y-26973571D01*
X76231428Y-26902142D01*
X76231428Y-26616428D01*
X76269523Y-26545000D01*
X76345714Y-26509285D01*
X76498095Y-26509285D01*
X76574285Y-26545000D01*
X76612380Y-26616428D01*
X76612380Y-26687857D01*
X76231428Y-26759285D01*
X77564761Y-26723571D02*
X78174285Y-26723571D01*
X77869523Y-27009285D02*
X77869523Y-26437857D01*
X79126666Y-26973571D02*
X79240952Y-27009285D01*
X79431428Y-27009285D01*
X79507619Y-26973571D01*
X79545714Y-26937857D01*
X79583809Y-26866428D01*
X79583809Y-26795000D01*
X79545714Y-26723571D01*
X79507619Y-26687857D01*
X79431428Y-26652142D01*
X79279047Y-26616428D01*
X79202857Y-26580714D01*
X79164761Y-26545000D01*
X79126666Y-26473571D01*
X79126666Y-26402142D01*
X79164761Y-26330714D01*
X79202857Y-26295000D01*
X79279047Y-26259285D01*
X79469523Y-26259285D01*
X79583809Y-26295000D01*
X79850476Y-26259285D02*
X80040952Y-27009285D01*
X80193333Y-26473571D01*
X80345714Y-27009285D01*
X80536190Y-26259285D01*
X80726666Y-26259285D02*
X80993333Y-27009285D01*
X81260000Y-26259285D01*
D12*
X49256190Y-29782857D02*
X49256190Y-30068571D01*
X49494285Y-30097142D01*
X49470476Y-30068571D01*
X49446666Y-30011428D01*
X49446666Y-29868571D01*
X49470476Y-29811428D01*
X49494285Y-29782857D01*
X49541904Y-29754285D01*
X49660952Y-29754285D01*
X49708571Y-29782857D01*
X49732380Y-29811428D01*
X49756190Y-29868571D01*
X49756190Y-30011428D01*
X49732380Y-30068571D01*
X49708571Y-30097142D01*
X49256190Y-29582857D02*
X49756190Y-29382857D01*
X49256190Y-29182857D01*
X49565714Y-28525714D02*
X49565714Y-28068571D01*
X49565714Y-27325714D02*
X49565714Y-26868571D01*
X49756190Y-27097142D02*
X49375238Y-27097142D01*
X49280000Y-25811428D02*
X49256190Y-25868571D01*
X49256190Y-25954285D01*
X49280000Y-26040000D01*
X49327619Y-26097142D01*
X49375238Y-26125714D01*
X49470476Y-26154285D01*
X49541904Y-26154285D01*
X49637142Y-26125714D01*
X49684761Y-26097142D01*
X49732380Y-26040000D01*
X49756190Y-25954285D01*
X49756190Y-25897142D01*
X49732380Y-25811428D01*
X49708571Y-25782857D01*
X49541904Y-25782857D01*
X49541904Y-25897142D01*
X63052857Y-44811190D02*
X63424285Y-44811190D01*
X63224285Y-45001666D01*
X63310000Y-45001666D01*
X63367142Y-45025476D01*
X63395714Y-45049285D01*
X63424285Y-45096904D01*
X63424285Y-45215952D01*
X63395714Y-45263571D01*
X63367142Y-45287380D01*
X63310000Y-45311190D01*
X63138571Y-45311190D01*
X63081428Y-45287380D01*
X63052857Y-45263571D01*
X63681428Y-45263571D02*
X63710000Y-45287380D01*
X63681428Y-45311190D01*
X63652857Y-45287380D01*
X63681428Y-45263571D01*
X63681428Y-45311190D01*
X63910000Y-44811190D02*
X64281428Y-44811190D01*
X64081428Y-45001666D01*
X64167142Y-45001666D01*
X64224285Y-45025476D01*
X64252857Y-45049285D01*
X64281428Y-45096904D01*
X64281428Y-45215952D01*
X64252857Y-45263571D01*
X64224285Y-45287380D01*
X64167142Y-45311190D01*
X63995714Y-45311190D01*
X63938571Y-45287380D01*
X63910000Y-45263571D01*
X64452857Y-44811190D02*
X64652857Y-45311190D01*
X64852857Y-44811190D01*
X65481428Y-45287380D02*
X65567142Y-45311190D01*
X65710000Y-45311190D01*
X65767142Y-45287380D01*
X65795714Y-45263571D01*
X65824285Y-45215952D01*
X65824285Y-45168333D01*
X65795714Y-45120714D01*
X65767142Y-45096904D01*
X65710000Y-45073095D01*
X65595714Y-45049285D01*
X65538571Y-45025476D01*
X65510000Y-45001666D01*
X65481428Y-44954047D01*
X65481428Y-44906428D01*
X65510000Y-44858809D01*
X65538571Y-44835000D01*
X65595714Y-44811190D01*
X65738571Y-44811190D01*
X65824285Y-44835000D01*
X66024285Y-44811190D02*
X66167142Y-45311190D01*
X66281428Y-44954047D01*
X66395714Y-45311190D01*
X66538571Y-44811190D01*
X66767142Y-45311190D02*
X66767142Y-44811190D01*
X66910000Y-44811190D01*
X66995714Y-44835000D01*
X67052857Y-44882619D01*
X67081428Y-44930238D01*
X67110000Y-45025476D01*
X67110000Y-45096904D01*
X67081428Y-45192142D01*
X67052857Y-45239761D01*
X66995714Y-45287380D01*
X66910000Y-45311190D01*
X66767142Y-45311190D01*
X68167142Y-45263571D02*
X68138571Y-45287380D01*
X68052857Y-45311190D01*
X67995714Y-45311190D01*
X67910000Y-45287380D01*
X67852857Y-45239761D01*
X67824285Y-45192142D01*
X67795714Y-45096904D01*
X67795714Y-45025476D01*
X67824285Y-44930238D01*
X67852857Y-44882619D01*
X67910000Y-44835000D01*
X67995714Y-44811190D01*
X68052857Y-44811190D01*
X68138571Y-44835000D01*
X68167142Y-44858809D01*
X68710000Y-45311190D02*
X68424285Y-45311190D01*
X68424285Y-44811190D01*
X68910000Y-45311190D02*
X68910000Y-44811190D01*
X69252857Y-45311190D02*
X68995714Y-45025476D01*
X69252857Y-44811190D02*
X68910000Y-45096904D01*
X70281428Y-44835000D02*
X70224285Y-44811190D01*
X70138571Y-44811190D01*
X70052857Y-44835000D01*
X69995714Y-44882619D01*
X69967142Y-44930238D01*
X69938571Y-45025476D01*
X69938571Y-45096904D01*
X69967142Y-45192142D01*
X69995714Y-45239761D01*
X70052857Y-45287380D01*
X70138571Y-45311190D01*
X70195714Y-45311190D01*
X70281428Y-45287380D01*
X70310000Y-45263571D01*
X70310000Y-45096904D01*
X70195714Y-45096904D01*
X70567142Y-45311190D02*
X70567142Y-44811190D01*
X70910000Y-45311190D01*
X70910000Y-44811190D01*
X71195714Y-45311190D02*
X71195714Y-44811190D01*
X71338571Y-44811190D01*
X71424285Y-44835000D01*
X71481428Y-44882619D01*
X71510000Y-44930238D01*
X71538571Y-45025476D01*
X71538571Y-45096904D01*
X71510000Y-45192142D01*
X71481428Y-45239761D01*
X71424285Y-45287380D01*
X71338571Y-45311190D01*
X71195714Y-45311190D01*
D11*
X84956704Y-42681085D02*
X84690038Y-42323942D01*
X84499561Y-42681085D02*
X84499561Y-41931085D01*
X84804323Y-41931085D01*
X84880514Y-41966800D01*
X84918609Y-42002514D01*
X84956704Y-42073942D01*
X84956704Y-42181085D01*
X84918609Y-42252514D01*
X84880514Y-42288228D01*
X84804323Y-42323942D01*
X84499561Y-42323942D01*
X85261466Y-42645371D02*
X85375752Y-42681085D01*
X85566228Y-42681085D01*
X85642419Y-42645371D01*
X85680514Y-42609657D01*
X85718609Y-42538228D01*
X85718609Y-42466800D01*
X85680514Y-42395371D01*
X85642419Y-42359657D01*
X85566228Y-42323942D01*
X85413847Y-42288228D01*
X85337657Y-42252514D01*
X85299561Y-42216800D01*
X85261466Y-42145371D01*
X85261466Y-42073942D01*
X85299561Y-42002514D01*
X85337657Y-41966800D01*
X85413847Y-41931085D01*
X85604323Y-41931085D01*
X85718609Y-41966800D01*
X85947180Y-41931085D02*
X86404323Y-41931085D01*
X86175752Y-42681085D02*
X86175752Y-41931085D01*
X84340838Y-39978371D02*
X84455123Y-40014085D01*
X84645600Y-40014085D01*
X84721790Y-39978371D01*
X84759885Y-39942657D01*
X84797980Y-39871228D01*
X84797980Y-39799800D01*
X84759885Y-39728371D01*
X84721790Y-39692657D01*
X84645600Y-39656942D01*
X84493219Y-39621228D01*
X84417028Y-39585514D01*
X84378933Y-39549800D01*
X84340838Y-39478371D01*
X84340838Y-39406942D01*
X84378933Y-39335514D01*
X84417028Y-39299800D01*
X84493219Y-39264085D01*
X84683695Y-39264085D01*
X84797980Y-39299800D01*
X85064647Y-39264085D02*
X85255123Y-40014085D01*
X85407504Y-39478371D01*
X85559885Y-40014085D01*
X85750361Y-39264085D01*
X86207504Y-39264085D02*
X86359885Y-39264085D01*
X86436076Y-39299800D01*
X86512266Y-39371228D01*
X86550361Y-39514085D01*
X86550361Y-39764085D01*
X86512266Y-39906942D01*
X86436076Y-39978371D01*
X86359885Y-40014085D01*
X86207504Y-40014085D01*
X86131314Y-39978371D01*
X86055123Y-39906942D01*
X86017028Y-39764085D01*
X86017028Y-39514085D01*
X86055123Y-39371228D01*
X86131314Y-39299800D01*
X86207504Y-39264085D01*
X84791609Y-34862657D02*
X84753514Y-34898371D01*
X84639228Y-34934085D01*
X84563038Y-34934085D01*
X84448752Y-34898371D01*
X84372561Y-34826942D01*
X84334466Y-34755514D01*
X84296371Y-34612657D01*
X84296371Y-34505514D01*
X84334466Y-34362657D01*
X84372561Y-34291228D01*
X84448752Y-34219800D01*
X84563038Y-34184085D01*
X84639228Y-34184085D01*
X84753514Y-34219800D01*
X84791609Y-34255514D01*
X85515419Y-34934085D02*
X85134466Y-34934085D01*
X85134466Y-34184085D01*
X85782085Y-34934085D02*
X85782085Y-34184085D01*
X86239228Y-34934085D02*
X85896371Y-34505514D01*
X86239228Y-34184085D02*
X85782085Y-34612657D01*
X84283685Y-32358371D02*
X84397971Y-32394085D01*
X84588447Y-32394085D01*
X84664638Y-32358371D01*
X84702733Y-32322657D01*
X84740828Y-32251228D01*
X84740828Y-32179800D01*
X84702733Y-32108371D01*
X84664638Y-32072657D01*
X84588447Y-32036942D01*
X84436066Y-32001228D01*
X84359876Y-31965514D01*
X84321780Y-31929800D01*
X84283685Y-31858371D01*
X84283685Y-31786942D01*
X84321780Y-31715514D01*
X84359876Y-31679800D01*
X84436066Y-31644085D01*
X84626542Y-31644085D01*
X84740828Y-31679800D01*
X85007495Y-31644085D02*
X85197971Y-32394085D01*
X85350352Y-31858371D01*
X85502733Y-32394085D01*
X85693209Y-31644085D01*
X85997971Y-32394085D02*
X85997971Y-31644085D01*
X86188447Y-31644085D01*
X86302733Y-31679800D01*
X86378923Y-31751228D01*
X86417019Y-31822657D01*
X86455114Y-31965514D01*
X86455114Y-32072657D01*
X86417019Y-32215514D01*
X86378923Y-32286942D01*
X86302733Y-32358371D01*
X86188447Y-32394085D01*
X85997971Y-32394085D01*
D13*
G04 #@! TO.C,D1*
X59856000Y-29694000D02*
X61556000Y-29694000D01*
X61556000Y-29694000D02*
X61556000Y-27144000D01*
X59856000Y-29694000D02*
X59856000Y-27144000D01*
D10*
G04 #@! TO.C,D2*
X74863500Y-32893000D02*
G75*
G03X74863500Y-32893000I-50000J0D01*
G01*
G04 #@! TO.C,D3*
X74863500Y-36322000D02*
G75*
G03X74863500Y-36322000I-50000J0D01*
G01*
G04 #@! TO.C,D4*
X64132000Y-27241500D02*
G75*
G03X64132000Y-27241500I-50000J0D01*
G01*
D13*
G04 #@! TO.C,D5*
X56730000Y-38378000D02*
X56730000Y-40928000D01*
X55030000Y-38378000D02*
X55030000Y-40928000D01*
X56730000Y-38378000D02*
X55030000Y-38378000D01*
G04 #@! TO.C,J1*
X47390000Y-40595000D02*
X47390000Y-31795000D01*
X44220000Y-42340000D02*
X43170000Y-42340000D01*
X44220000Y-30050000D02*
X43170000Y-30050000D01*
G04 #@! TO.C,J3*
X49460000Y-42105000D02*
X49460000Y-46125000D01*
X49460000Y-46125000D02*
X62180000Y-46125000D01*
X62180000Y-46125000D02*
X62180000Y-42105000D01*
X62180000Y-42105000D02*
X49460000Y-42105000D01*
X49460000Y-43815000D02*
X49960000Y-43815000D01*
X49960000Y-43815000D02*
X49960000Y-42605000D01*
X49960000Y-42605000D02*
X61680000Y-42605000D01*
X61680000Y-42605000D02*
X61680000Y-43815000D01*
X61680000Y-43815000D02*
X62180000Y-43815000D01*
X49460000Y-44625000D02*
X50460000Y-44625000D01*
X50460000Y-44625000D02*
X50460000Y-46125000D01*
X62180000Y-44625000D02*
X61180000Y-44625000D01*
X61180000Y-44625000D02*
X61180000Y-46125000D01*
X49160000Y-43925000D02*
X49160000Y-46425000D01*
X49160000Y-46425000D02*
X51660000Y-46425000D01*
G04 #@! TO.C,U1*
X51200000Y-34326000D02*
X51200000Y-28316000D01*
X58020000Y-32076000D02*
X58020000Y-28316000D01*
X51200000Y-28316000D02*
X52460000Y-28316000D01*
X58020000Y-28316000D02*
X56760000Y-28316000D01*
G04 #@! TO.C,U2*
X63763500Y-32654000D02*
X62473500Y-32654000D01*
X63763500Y-32204000D02*
X63763500Y-32654000D01*
X64213500Y-32204000D02*
X63763500Y-32204000D01*
X70983500Y-32204000D02*
X70983500Y-32654000D01*
X70533500Y-32204000D02*
X70983500Y-32204000D01*
X63763500Y-39424000D02*
X63763500Y-38974000D01*
X64213500Y-39424000D02*
X63763500Y-39424000D01*
X70983500Y-39424000D02*
X70983500Y-38974000D01*
X70533500Y-39424000D02*
X70983500Y-39424000D01*
G04 #@! TO.C,U3*
X54442000Y-39000000D02*
X54442000Y-36550000D01*
X51222000Y-37200000D02*
X51222000Y-39000000D01*
G04 #@! TO.C,Y1*
X80337500Y-42387000D02*
X80337500Y-29787000D01*
X75237500Y-42387000D02*
X80337500Y-42387000D01*
X75237500Y-29787000D02*
X75237500Y-42387000D01*
G04 #@! TD*
G04 #@! TO.C,C3*
D14*
X60721071Y-37103833D02*
X60744880Y-37127642D01*
X60768690Y-37199071D01*
X60768690Y-37246690D01*
X60744880Y-37318119D01*
X60697261Y-37365738D01*
X60649642Y-37389547D01*
X60554404Y-37413357D01*
X60482976Y-37413357D01*
X60387738Y-37389547D01*
X60340119Y-37365738D01*
X60292500Y-37318119D01*
X60268690Y-37246690D01*
X60268690Y-37199071D01*
X60292500Y-37127642D01*
X60316309Y-37103833D01*
X60268690Y-36937166D02*
X60268690Y-36627642D01*
X60459166Y-36794309D01*
X60459166Y-36722880D01*
X60482976Y-36675261D01*
X60506785Y-36651452D01*
X60554404Y-36627642D01*
X60673452Y-36627642D01*
X60721071Y-36651452D01*
X60744880Y-36675261D01*
X60768690Y-36722880D01*
X60768690Y-36865738D01*
X60744880Y-36913357D01*
X60721071Y-36937166D01*
X58646190Y-36968809D02*
X58646190Y-37254523D01*
X58646190Y-37111666D02*
X58146190Y-37111666D01*
X58217619Y-37159285D01*
X58265238Y-37206904D01*
X58289047Y-37254523D01*
X58146190Y-36659285D02*
X58146190Y-36611666D01*
X58170000Y-36564047D01*
X58193809Y-36540238D01*
X58241428Y-36516428D01*
X58336666Y-36492619D01*
X58455714Y-36492619D01*
X58550952Y-36516428D01*
X58598571Y-36540238D01*
X58622380Y-36564047D01*
X58646190Y-36611666D01*
X58646190Y-36659285D01*
X58622380Y-36706904D01*
X58598571Y-36730714D01*
X58550952Y-36754523D01*
X58455714Y-36778333D01*
X58336666Y-36778333D01*
X58241428Y-36754523D01*
X58193809Y-36730714D01*
X58170000Y-36706904D01*
X58146190Y-36659285D01*
X58146190Y-36183095D02*
X58146190Y-36135476D01*
X58170000Y-36087857D01*
X58193809Y-36064047D01*
X58241428Y-36040238D01*
X58336666Y-36016428D01*
X58455714Y-36016428D01*
X58550952Y-36040238D01*
X58598571Y-36064047D01*
X58622380Y-36087857D01*
X58646190Y-36135476D01*
X58646190Y-36183095D01*
X58622380Y-36230714D01*
X58598571Y-36254523D01*
X58550952Y-36278333D01*
X58455714Y-36302142D01*
X58336666Y-36302142D01*
X58241428Y-36278333D01*
X58193809Y-36254523D01*
X58170000Y-36230714D01*
X58146190Y-36183095D01*
X58312857Y-35802142D02*
X58646190Y-35802142D01*
X58360476Y-35802142D02*
X58336666Y-35778333D01*
X58312857Y-35730714D01*
X58312857Y-35659285D01*
X58336666Y-35611666D01*
X58384285Y-35587857D01*
X58646190Y-35587857D01*
X58384285Y-35183095D02*
X58384285Y-35349761D01*
X58646190Y-35349761D02*
X58146190Y-35349761D01*
X58146190Y-35111666D01*
X59551071Y-37103833D02*
X59574880Y-37127642D01*
X59598690Y-37199071D01*
X59598690Y-37246690D01*
X59574880Y-37318119D01*
X59527261Y-37365738D01*
X59479642Y-37389547D01*
X59384404Y-37413357D01*
X59312976Y-37413357D01*
X59217738Y-37389547D01*
X59170119Y-37365738D01*
X59122500Y-37318119D01*
X59098690Y-37246690D01*
X59098690Y-37199071D01*
X59122500Y-37127642D01*
X59146309Y-37103833D01*
X59098690Y-36937166D02*
X59098690Y-36627642D01*
X59289166Y-36794309D01*
X59289166Y-36722880D01*
X59312976Y-36675261D01*
X59336785Y-36651452D01*
X59384404Y-36627642D01*
X59503452Y-36627642D01*
X59551071Y-36651452D01*
X59574880Y-36675261D01*
X59598690Y-36722880D01*
X59598690Y-36865738D01*
X59574880Y-36913357D01*
X59551071Y-36937166D01*
G04 #@! TO.C,C4*
X57701666Y-37262571D02*
X57677857Y-37286380D01*
X57606428Y-37310190D01*
X57558809Y-37310190D01*
X57487380Y-37286380D01*
X57439761Y-37238761D01*
X57415952Y-37191142D01*
X57392142Y-37095904D01*
X57392142Y-37024476D01*
X57415952Y-36929238D01*
X57439761Y-36881619D01*
X57487380Y-36834000D01*
X57558809Y-36810190D01*
X57606428Y-36810190D01*
X57677857Y-36834000D01*
X57701666Y-36857809D01*
X58130238Y-36976857D02*
X58130238Y-37310190D01*
X58011190Y-36786380D02*
X57892142Y-37143523D01*
X58201666Y-37143523D01*
X55106190Y-36421190D02*
X54820476Y-36421190D01*
X54963333Y-36421190D02*
X54963333Y-35921190D01*
X54915714Y-35992619D01*
X54868095Y-36040238D01*
X54820476Y-36064047D01*
X55415714Y-35921190D02*
X55463333Y-35921190D01*
X55510952Y-35945000D01*
X55534761Y-35968809D01*
X55558571Y-36016428D01*
X55582380Y-36111666D01*
X55582380Y-36230714D01*
X55558571Y-36325952D01*
X55534761Y-36373571D01*
X55510952Y-36397380D01*
X55463333Y-36421190D01*
X55415714Y-36421190D01*
X55368095Y-36397380D01*
X55344285Y-36373571D01*
X55320476Y-36325952D01*
X55296666Y-36230714D01*
X55296666Y-36111666D01*
X55320476Y-36016428D01*
X55344285Y-35968809D01*
X55368095Y-35945000D01*
X55415714Y-35921190D01*
X55891904Y-35921190D02*
X55939523Y-35921190D01*
X55987142Y-35945000D01*
X56010952Y-35968809D01*
X56034761Y-36016428D01*
X56058571Y-36111666D01*
X56058571Y-36230714D01*
X56034761Y-36325952D01*
X56010952Y-36373571D01*
X55987142Y-36397380D01*
X55939523Y-36421190D01*
X55891904Y-36421190D01*
X55844285Y-36397380D01*
X55820476Y-36373571D01*
X55796666Y-36325952D01*
X55772857Y-36230714D01*
X55772857Y-36111666D01*
X55796666Y-36016428D01*
X55820476Y-35968809D01*
X55844285Y-35945000D01*
X55891904Y-35921190D01*
X56272857Y-36087857D02*
X56272857Y-36421190D01*
X56272857Y-36135476D02*
X56296666Y-36111666D01*
X56344285Y-36087857D01*
X56415714Y-36087857D01*
X56463333Y-36111666D01*
X56487142Y-36159285D01*
X56487142Y-36421190D01*
X56891904Y-36159285D02*
X56725238Y-36159285D01*
X56725238Y-36421190D02*
X56725238Y-35921190D01*
X56963333Y-35921190D01*
X55796666Y-37262571D02*
X55772857Y-37286380D01*
X55701428Y-37310190D01*
X55653809Y-37310190D01*
X55582380Y-37286380D01*
X55534761Y-37238761D01*
X55510952Y-37191142D01*
X55487142Y-37095904D01*
X55487142Y-37024476D01*
X55510952Y-36929238D01*
X55534761Y-36881619D01*
X55582380Y-36834000D01*
X55653809Y-36810190D01*
X55701428Y-36810190D01*
X55772857Y-36834000D01*
X55796666Y-36857809D01*
X56225238Y-36976857D02*
X56225238Y-37310190D01*
X56106190Y-36786380D02*
X55987142Y-37143523D01*
X56296666Y-37143523D01*
G04 #@! TO.C,C5*
X59106571Y-29651333D02*
X59130380Y-29675142D01*
X59154190Y-29746571D01*
X59154190Y-29794190D01*
X59130380Y-29865619D01*
X59082761Y-29913238D01*
X59035142Y-29937047D01*
X58939904Y-29960857D01*
X58868476Y-29960857D01*
X58773238Y-29937047D01*
X58725619Y-29913238D01*
X58678000Y-29865619D01*
X58654190Y-29794190D01*
X58654190Y-29746571D01*
X58678000Y-29675142D01*
X58701809Y-29651333D01*
X58654190Y-29198952D02*
X58654190Y-29437047D01*
X58892285Y-29460857D01*
X58868476Y-29437047D01*
X58844666Y-29389428D01*
X58844666Y-29270380D01*
X58868476Y-29222761D01*
X58892285Y-29198952D01*
X58939904Y-29175142D01*
X59058952Y-29175142D01*
X59106571Y-29198952D01*
X59130380Y-29222761D01*
X59154190Y-29270380D01*
X59154190Y-29389428D01*
X59130380Y-29437047D01*
X59106571Y-29460857D01*
X57984190Y-28198714D02*
X57984190Y-28484428D01*
X57984190Y-28341571D02*
X57484190Y-28341571D01*
X57555619Y-28389190D01*
X57603238Y-28436809D01*
X57627047Y-28484428D01*
X57484190Y-27889190D02*
X57484190Y-27841571D01*
X57508000Y-27793952D01*
X57531809Y-27770142D01*
X57579428Y-27746333D01*
X57674666Y-27722523D01*
X57793714Y-27722523D01*
X57888952Y-27746333D01*
X57936571Y-27770142D01*
X57960380Y-27793952D01*
X57984190Y-27841571D01*
X57984190Y-27889190D01*
X57960380Y-27936809D01*
X57936571Y-27960619D01*
X57888952Y-27984428D01*
X57793714Y-28008238D01*
X57674666Y-28008238D01*
X57579428Y-27984428D01*
X57531809Y-27960619D01*
X57508000Y-27936809D01*
X57484190Y-27889190D01*
X57650857Y-27293952D02*
X57984190Y-27293952D01*
X57650857Y-27508238D02*
X57912761Y-27508238D01*
X57960380Y-27484428D01*
X57984190Y-27436809D01*
X57984190Y-27365380D01*
X57960380Y-27317761D01*
X57936571Y-27293952D01*
X57722285Y-26889190D02*
X57722285Y-27055857D01*
X57984190Y-27055857D02*
X57484190Y-27055857D01*
X57484190Y-26817761D01*
X59106571Y-27746333D02*
X59130380Y-27770142D01*
X59154190Y-27841571D01*
X59154190Y-27889190D01*
X59130380Y-27960619D01*
X59082761Y-28008238D01*
X59035142Y-28032047D01*
X58939904Y-28055857D01*
X58868476Y-28055857D01*
X58773238Y-28032047D01*
X58725619Y-28008238D01*
X58678000Y-27960619D01*
X58654190Y-27889190D01*
X58654190Y-27841571D01*
X58678000Y-27770142D01*
X58701809Y-27746333D01*
X58654190Y-27293952D02*
X58654190Y-27532047D01*
X58892285Y-27555857D01*
X58868476Y-27532047D01*
X58844666Y-27484428D01*
X58844666Y-27365380D01*
X58868476Y-27317761D01*
X58892285Y-27293952D01*
X58939904Y-27270142D01*
X59058952Y-27270142D01*
X59106571Y-27293952D01*
X59130380Y-27317761D01*
X59154190Y-27365380D01*
X59154190Y-27484428D01*
X59130380Y-27532047D01*
X59106571Y-27555857D01*
G04 #@! TO.C,C6*
X60137666Y-32336571D02*
X60113857Y-32360380D01*
X60042428Y-32384190D01*
X59994809Y-32384190D01*
X59923380Y-32360380D01*
X59875761Y-32312761D01*
X59851952Y-32265142D01*
X59828142Y-32169904D01*
X59828142Y-32098476D01*
X59851952Y-32003238D01*
X59875761Y-31955619D01*
X59923380Y-31908000D01*
X59994809Y-31884190D01*
X60042428Y-31884190D01*
X60113857Y-31908000D01*
X60137666Y-31931809D01*
X60566238Y-31884190D02*
X60471000Y-31884190D01*
X60423380Y-31908000D01*
X60399571Y-31931809D01*
X60351952Y-32003238D01*
X60328142Y-32098476D01*
X60328142Y-32288952D01*
X60351952Y-32336571D01*
X60375761Y-32360380D01*
X60423380Y-32384190D01*
X60518619Y-32384190D01*
X60566238Y-32360380D01*
X60590047Y-32336571D01*
X60613857Y-32288952D01*
X60613857Y-32169904D01*
X60590047Y-32122285D01*
X60566238Y-32098476D01*
X60518619Y-32074666D01*
X60423380Y-32074666D01*
X60375761Y-32098476D01*
X60351952Y-32122285D01*
X60328142Y-32169904D01*
X59447190Y-30044190D02*
X59161476Y-30044190D01*
X59304333Y-30044190D02*
X59304333Y-29544190D01*
X59256714Y-29615619D01*
X59209095Y-29663238D01*
X59161476Y-29687047D01*
X59756714Y-29544190D02*
X59804333Y-29544190D01*
X59851952Y-29568000D01*
X59875761Y-29591809D01*
X59899571Y-29639428D01*
X59923380Y-29734666D01*
X59923380Y-29853714D01*
X59899571Y-29948952D01*
X59875761Y-29996571D01*
X59851952Y-30020380D01*
X59804333Y-30044190D01*
X59756714Y-30044190D01*
X59709095Y-30020380D01*
X59685285Y-29996571D01*
X59661476Y-29948952D01*
X59637666Y-29853714D01*
X59637666Y-29734666D01*
X59661476Y-29639428D01*
X59685285Y-29591809D01*
X59709095Y-29568000D01*
X59756714Y-29544190D01*
X60232904Y-29544190D02*
X60280523Y-29544190D01*
X60328142Y-29568000D01*
X60351952Y-29591809D01*
X60375761Y-29639428D01*
X60399571Y-29734666D01*
X60399571Y-29853714D01*
X60375761Y-29948952D01*
X60351952Y-29996571D01*
X60328142Y-30020380D01*
X60280523Y-30044190D01*
X60232904Y-30044190D01*
X60185285Y-30020380D01*
X60161476Y-29996571D01*
X60137666Y-29948952D01*
X60113857Y-29853714D01*
X60113857Y-29734666D01*
X60137666Y-29639428D01*
X60161476Y-29591809D01*
X60185285Y-29568000D01*
X60232904Y-29544190D01*
X60613857Y-29710857D02*
X60613857Y-30044190D01*
X60613857Y-29758476D02*
X60637666Y-29734666D01*
X60685285Y-29710857D01*
X60756714Y-29710857D01*
X60804333Y-29734666D01*
X60828142Y-29782285D01*
X60828142Y-30044190D01*
X61232904Y-29782285D02*
X61066238Y-29782285D01*
X61066238Y-30044190D02*
X61066238Y-29544190D01*
X61304333Y-29544190D01*
X60137666Y-31166571D02*
X60113857Y-31190380D01*
X60042428Y-31214190D01*
X59994809Y-31214190D01*
X59923380Y-31190380D01*
X59875761Y-31142761D01*
X59851952Y-31095142D01*
X59828142Y-30999904D01*
X59828142Y-30928476D01*
X59851952Y-30833238D01*
X59875761Y-30785619D01*
X59923380Y-30738000D01*
X59994809Y-30714190D01*
X60042428Y-30714190D01*
X60113857Y-30738000D01*
X60137666Y-30761809D01*
X60566238Y-30714190D02*
X60471000Y-30714190D01*
X60423380Y-30738000D01*
X60399571Y-30761809D01*
X60351952Y-30833238D01*
X60328142Y-30928476D01*
X60328142Y-31118952D01*
X60351952Y-31166571D01*
X60375761Y-31190380D01*
X60423380Y-31214190D01*
X60518619Y-31214190D01*
X60566238Y-31190380D01*
X60590047Y-31166571D01*
X60613857Y-31118952D01*
X60613857Y-30999904D01*
X60590047Y-30952285D01*
X60566238Y-30928476D01*
X60518619Y-30904666D01*
X60423380Y-30904666D01*
X60375761Y-30928476D01*
X60351952Y-30952285D01*
X60328142Y-30999904D01*
G04 #@! TO.C,C7*
X60137666Y-33606571D02*
X60113857Y-33630380D01*
X60042428Y-33654190D01*
X59994809Y-33654190D01*
X59923380Y-33630380D01*
X59875761Y-33582761D01*
X59851952Y-33535142D01*
X59828142Y-33439904D01*
X59828142Y-33368476D01*
X59851952Y-33273238D01*
X59875761Y-33225619D01*
X59923380Y-33178000D01*
X59994809Y-33154190D01*
X60042428Y-33154190D01*
X60113857Y-33178000D01*
X60137666Y-33201809D01*
X60304333Y-33154190D02*
X60637666Y-33154190D01*
X60423380Y-33654190D01*
X59447190Y-31314190D02*
X59161476Y-31314190D01*
X59304333Y-31314190D02*
X59304333Y-30814190D01*
X59256714Y-30885619D01*
X59209095Y-30933238D01*
X59161476Y-30957047D01*
X59756714Y-30814190D02*
X59804333Y-30814190D01*
X59851952Y-30838000D01*
X59875761Y-30861809D01*
X59899571Y-30909428D01*
X59923380Y-31004666D01*
X59923380Y-31123714D01*
X59899571Y-31218952D01*
X59875761Y-31266571D01*
X59851952Y-31290380D01*
X59804333Y-31314190D01*
X59756714Y-31314190D01*
X59709095Y-31290380D01*
X59685285Y-31266571D01*
X59661476Y-31218952D01*
X59637666Y-31123714D01*
X59637666Y-31004666D01*
X59661476Y-30909428D01*
X59685285Y-30861809D01*
X59709095Y-30838000D01*
X59756714Y-30814190D01*
X60232904Y-30814190D02*
X60280523Y-30814190D01*
X60328142Y-30838000D01*
X60351952Y-30861809D01*
X60375761Y-30909428D01*
X60399571Y-31004666D01*
X60399571Y-31123714D01*
X60375761Y-31218952D01*
X60351952Y-31266571D01*
X60328142Y-31290380D01*
X60280523Y-31314190D01*
X60232904Y-31314190D01*
X60185285Y-31290380D01*
X60161476Y-31266571D01*
X60137666Y-31218952D01*
X60113857Y-31123714D01*
X60113857Y-31004666D01*
X60137666Y-30909428D01*
X60161476Y-30861809D01*
X60185285Y-30838000D01*
X60232904Y-30814190D01*
X60613857Y-30980857D02*
X60613857Y-31314190D01*
X60613857Y-31028476D02*
X60637666Y-31004666D01*
X60685285Y-30980857D01*
X60756714Y-30980857D01*
X60804333Y-31004666D01*
X60828142Y-31052285D01*
X60828142Y-31314190D01*
X61232904Y-31052285D02*
X61066238Y-31052285D01*
X61066238Y-31314190D02*
X61066238Y-30814190D01*
X61304333Y-30814190D01*
X60137666Y-32436571D02*
X60113857Y-32460380D01*
X60042428Y-32484190D01*
X59994809Y-32484190D01*
X59923380Y-32460380D01*
X59875761Y-32412761D01*
X59851952Y-32365142D01*
X59828142Y-32269904D01*
X59828142Y-32198476D01*
X59851952Y-32103238D01*
X59875761Y-32055619D01*
X59923380Y-32008000D01*
X59994809Y-31984190D01*
X60042428Y-31984190D01*
X60113857Y-32008000D01*
X60137666Y-32031809D01*
X60304333Y-31984190D02*
X60637666Y-31984190D01*
X60423380Y-32484190D01*
G04 #@! TO.C,C9*
X60137666Y-34876571D02*
X60113857Y-34900380D01*
X60042428Y-34924190D01*
X59994809Y-34924190D01*
X59923380Y-34900380D01*
X59875761Y-34852761D01*
X59851952Y-34805142D01*
X59828142Y-34709904D01*
X59828142Y-34638476D01*
X59851952Y-34543238D01*
X59875761Y-34495619D01*
X59923380Y-34448000D01*
X59994809Y-34424190D01*
X60042428Y-34424190D01*
X60113857Y-34448000D01*
X60137666Y-34471809D01*
X60375761Y-34924190D02*
X60471000Y-34924190D01*
X60518619Y-34900380D01*
X60542428Y-34876571D01*
X60590047Y-34805142D01*
X60613857Y-34709904D01*
X60613857Y-34519428D01*
X60590047Y-34471809D01*
X60566238Y-34448000D01*
X60518619Y-34424190D01*
X60423380Y-34424190D01*
X60375761Y-34448000D01*
X60351952Y-34471809D01*
X60328142Y-34519428D01*
X60328142Y-34638476D01*
X60351952Y-34686095D01*
X60375761Y-34709904D01*
X60423380Y-34733714D01*
X60518619Y-34733714D01*
X60566238Y-34709904D01*
X60590047Y-34686095D01*
X60613857Y-34638476D01*
X59447190Y-32584190D02*
X59161476Y-32584190D01*
X59304333Y-32584190D02*
X59304333Y-32084190D01*
X59256714Y-32155619D01*
X59209095Y-32203238D01*
X59161476Y-32227047D01*
X59756714Y-32084190D02*
X59804333Y-32084190D01*
X59851952Y-32108000D01*
X59875761Y-32131809D01*
X59899571Y-32179428D01*
X59923380Y-32274666D01*
X59923380Y-32393714D01*
X59899571Y-32488952D01*
X59875761Y-32536571D01*
X59851952Y-32560380D01*
X59804333Y-32584190D01*
X59756714Y-32584190D01*
X59709095Y-32560380D01*
X59685285Y-32536571D01*
X59661476Y-32488952D01*
X59637666Y-32393714D01*
X59637666Y-32274666D01*
X59661476Y-32179428D01*
X59685285Y-32131809D01*
X59709095Y-32108000D01*
X59756714Y-32084190D01*
X60232904Y-32084190D02*
X60280523Y-32084190D01*
X60328142Y-32108000D01*
X60351952Y-32131809D01*
X60375761Y-32179428D01*
X60399571Y-32274666D01*
X60399571Y-32393714D01*
X60375761Y-32488952D01*
X60351952Y-32536571D01*
X60328142Y-32560380D01*
X60280523Y-32584190D01*
X60232904Y-32584190D01*
X60185285Y-32560380D01*
X60161476Y-32536571D01*
X60137666Y-32488952D01*
X60113857Y-32393714D01*
X60113857Y-32274666D01*
X60137666Y-32179428D01*
X60161476Y-32131809D01*
X60185285Y-32108000D01*
X60232904Y-32084190D01*
X60613857Y-32250857D02*
X60613857Y-32584190D01*
X60613857Y-32298476D02*
X60637666Y-32274666D01*
X60685285Y-32250857D01*
X60756714Y-32250857D01*
X60804333Y-32274666D01*
X60828142Y-32322285D01*
X60828142Y-32584190D01*
X61232904Y-32322285D02*
X61066238Y-32322285D01*
X61066238Y-32584190D02*
X61066238Y-32084190D01*
X61304333Y-32084190D01*
X60137666Y-33706571D02*
X60113857Y-33730380D01*
X60042428Y-33754190D01*
X59994809Y-33754190D01*
X59923380Y-33730380D01*
X59875761Y-33682761D01*
X59851952Y-33635142D01*
X59828142Y-33539904D01*
X59828142Y-33468476D01*
X59851952Y-33373238D01*
X59875761Y-33325619D01*
X59923380Y-33278000D01*
X59994809Y-33254190D01*
X60042428Y-33254190D01*
X60113857Y-33278000D01*
X60137666Y-33301809D01*
X60375761Y-33754190D02*
X60471000Y-33754190D01*
X60518619Y-33730380D01*
X60542428Y-33706571D01*
X60590047Y-33635142D01*
X60613857Y-33539904D01*
X60613857Y-33349428D01*
X60590047Y-33301809D01*
X60566238Y-33278000D01*
X60518619Y-33254190D01*
X60423380Y-33254190D01*
X60375761Y-33278000D01*
X60351952Y-33301809D01*
X60328142Y-33349428D01*
X60328142Y-33468476D01*
X60351952Y-33516095D01*
X60375761Y-33539904D01*
X60423380Y-33563714D01*
X60518619Y-33563714D01*
X60566238Y-33539904D01*
X60590047Y-33516095D01*
X60613857Y-33468476D01*
G04 #@! TO.C,C10*
X59899571Y-36146571D02*
X59875761Y-36170380D01*
X59804333Y-36194190D01*
X59756714Y-36194190D01*
X59685285Y-36170380D01*
X59637666Y-36122761D01*
X59613857Y-36075142D01*
X59590047Y-35979904D01*
X59590047Y-35908476D01*
X59613857Y-35813238D01*
X59637666Y-35765619D01*
X59685285Y-35718000D01*
X59756714Y-35694190D01*
X59804333Y-35694190D01*
X59875761Y-35718000D01*
X59899571Y-35741809D01*
X60375761Y-36194190D02*
X60090047Y-36194190D01*
X60232904Y-36194190D02*
X60232904Y-35694190D01*
X60185285Y-35765619D01*
X60137666Y-35813238D01*
X60090047Y-35837047D01*
X60685285Y-35694190D02*
X60732904Y-35694190D01*
X60780523Y-35718000D01*
X60804333Y-35741809D01*
X60828142Y-35789428D01*
X60851952Y-35884666D01*
X60851952Y-36003714D01*
X60828142Y-36098952D01*
X60804333Y-36146571D01*
X60780523Y-36170380D01*
X60732904Y-36194190D01*
X60685285Y-36194190D01*
X60637666Y-36170380D01*
X60613857Y-36146571D01*
X60590047Y-36098952D01*
X60566238Y-36003714D01*
X60566238Y-35884666D01*
X60590047Y-35789428D01*
X60613857Y-35741809D01*
X60637666Y-35718000D01*
X60685285Y-35694190D01*
X59447190Y-33854190D02*
X59161476Y-33854190D01*
X59304333Y-33854190D02*
X59304333Y-33354190D01*
X59256714Y-33425619D01*
X59209095Y-33473238D01*
X59161476Y-33497047D01*
X59756714Y-33354190D02*
X59804333Y-33354190D01*
X59851952Y-33378000D01*
X59875761Y-33401809D01*
X59899571Y-33449428D01*
X59923380Y-33544666D01*
X59923380Y-33663714D01*
X59899571Y-33758952D01*
X59875761Y-33806571D01*
X59851952Y-33830380D01*
X59804333Y-33854190D01*
X59756714Y-33854190D01*
X59709095Y-33830380D01*
X59685285Y-33806571D01*
X59661476Y-33758952D01*
X59637666Y-33663714D01*
X59637666Y-33544666D01*
X59661476Y-33449428D01*
X59685285Y-33401809D01*
X59709095Y-33378000D01*
X59756714Y-33354190D01*
X60232904Y-33354190D02*
X60280523Y-33354190D01*
X60328142Y-33378000D01*
X60351952Y-33401809D01*
X60375761Y-33449428D01*
X60399571Y-33544666D01*
X60399571Y-33663714D01*
X60375761Y-33758952D01*
X60351952Y-33806571D01*
X60328142Y-33830380D01*
X60280523Y-33854190D01*
X60232904Y-33854190D01*
X60185285Y-33830380D01*
X60161476Y-33806571D01*
X60137666Y-33758952D01*
X60113857Y-33663714D01*
X60113857Y-33544666D01*
X60137666Y-33449428D01*
X60161476Y-33401809D01*
X60185285Y-33378000D01*
X60232904Y-33354190D01*
X60613857Y-33520857D02*
X60613857Y-33854190D01*
X60613857Y-33568476D02*
X60637666Y-33544666D01*
X60685285Y-33520857D01*
X60756714Y-33520857D01*
X60804333Y-33544666D01*
X60828142Y-33592285D01*
X60828142Y-33854190D01*
X61232904Y-33592285D02*
X61066238Y-33592285D01*
X61066238Y-33854190D02*
X61066238Y-33354190D01*
X61304333Y-33354190D01*
X59899571Y-34976571D02*
X59875761Y-35000380D01*
X59804333Y-35024190D01*
X59756714Y-35024190D01*
X59685285Y-35000380D01*
X59637666Y-34952761D01*
X59613857Y-34905142D01*
X59590047Y-34809904D01*
X59590047Y-34738476D01*
X59613857Y-34643238D01*
X59637666Y-34595619D01*
X59685285Y-34548000D01*
X59756714Y-34524190D01*
X59804333Y-34524190D01*
X59875761Y-34548000D01*
X59899571Y-34571809D01*
X60375761Y-35024190D02*
X60090047Y-35024190D01*
X60232904Y-35024190D02*
X60232904Y-34524190D01*
X60185285Y-34595619D01*
X60137666Y-34643238D01*
X60090047Y-34667047D01*
X60685285Y-34524190D02*
X60732904Y-34524190D01*
X60780523Y-34548000D01*
X60804333Y-34571809D01*
X60828142Y-34619428D01*
X60851952Y-34714666D01*
X60851952Y-34833714D01*
X60828142Y-34928952D01*
X60804333Y-34976571D01*
X60780523Y-35000380D01*
X60732904Y-35024190D01*
X60685285Y-35024190D01*
X60637666Y-35000380D01*
X60613857Y-34976571D01*
X60590047Y-34928952D01*
X60566238Y-34833714D01*
X60566238Y-34714666D01*
X60590047Y-34619428D01*
X60613857Y-34571809D01*
X60637666Y-34548000D01*
X60685285Y-34524190D01*
G04 #@! TO.C,C11*
X53653571Y-41072571D02*
X53629761Y-41096380D01*
X53558333Y-41120190D01*
X53510714Y-41120190D01*
X53439285Y-41096380D01*
X53391666Y-41048761D01*
X53367857Y-41001142D01*
X53344047Y-40905904D01*
X53344047Y-40834476D01*
X53367857Y-40739238D01*
X53391666Y-40691619D01*
X53439285Y-40644000D01*
X53510714Y-40620190D01*
X53558333Y-40620190D01*
X53629761Y-40644000D01*
X53653571Y-40667809D01*
X54129761Y-41120190D02*
X53844047Y-41120190D01*
X53986904Y-41120190D02*
X53986904Y-40620190D01*
X53939285Y-40691619D01*
X53891666Y-40739238D01*
X53844047Y-40763047D01*
X54605952Y-41120190D02*
X54320238Y-41120190D01*
X54463095Y-41120190D02*
X54463095Y-40620190D01*
X54415476Y-40691619D01*
X54367857Y-40739238D01*
X54320238Y-40763047D01*
X51772380Y-42290190D02*
X51486666Y-42290190D01*
X51629523Y-42290190D02*
X51629523Y-41790190D01*
X51581904Y-41861619D01*
X51534285Y-41909238D01*
X51486666Y-41933047D01*
X52200952Y-41956857D02*
X52200952Y-42290190D01*
X51986666Y-41956857D02*
X51986666Y-42218761D01*
X52010476Y-42266380D01*
X52058095Y-42290190D01*
X52129523Y-42290190D01*
X52177142Y-42266380D01*
X52200952Y-42242571D01*
X52605714Y-42028285D02*
X52439047Y-42028285D01*
X52439047Y-42290190D02*
X52439047Y-41790190D01*
X52677142Y-41790190D01*
X51748571Y-41072571D02*
X51724761Y-41096380D01*
X51653333Y-41120190D01*
X51605714Y-41120190D01*
X51534285Y-41096380D01*
X51486666Y-41048761D01*
X51462857Y-41001142D01*
X51439047Y-40905904D01*
X51439047Y-40834476D01*
X51462857Y-40739238D01*
X51486666Y-40691619D01*
X51534285Y-40644000D01*
X51605714Y-40620190D01*
X51653333Y-40620190D01*
X51724761Y-40644000D01*
X51748571Y-40667809D01*
X52224761Y-41120190D02*
X51939047Y-41120190D01*
X52081904Y-41120190D02*
X52081904Y-40620190D01*
X52034285Y-40691619D01*
X51986666Y-40739238D01*
X51939047Y-40763047D01*
X52700952Y-41120190D02*
X52415238Y-41120190D01*
X52558095Y-41120190D02*
X52558095Y-40620190D01*
X52510476Y-40691619D01*
X52462857Y-40739238D01*
X52415238Y-40763047D01*
G04 #@! TO.C,C13*
X67306071Y-40728071D02*
X67282261Y-40751880D01*
X67210833Y-40775690D01*
X67163214Y-40775690D01*
X67091785Y-40751880D01*
X67044166Y-40704261D01*
X67020357Y-40656642D01*
X66996547Y-40561404D01*
X66996547Y-40489976D01*
X67020357Y-40394738D01*
X67044166Y-40347119D01*
X67091785Y-40299500D01*
X67163214Y-40275690D01*
X67210833Y-40275690D01*
X67282261Y-40299500D01*
X67306071Y-40323309D01*
X67782261Y-40775690D02*
X67496547Y-40775690D01*
X67639404Y-40775690D02*
X67639404Y-40275690D01*
X67591785Y-40347119D01*
X67544166Y-40394738D01*
X67496547Y-40418547D01*
X67948928Y-40275690D02*
X68258452Y-40275690D01*
X68091785Y-40466166D01*
X68163214Y-40466166D01*
X68210833Y-40489976D01*
X68234642Y-40513785D01*
X68258452Y-40561404D01*
X68258452Y-40680452D01*
X68234642Y-40728071D01*
X68210833Y-40751880D01*
X68163214Y-40775690D01*
X68020357Y-40775690D01*
X67972738Y-40751880D01*
X67948928Y-40728071D01*
X66853690Y-43115690D02*
X66567976Y-43115690D01*
X66710833Y-43115690D02*
X66710833Y-42615690D01*
X66663214Y-42687119D01*
X66615595Y-42734738D01*
X66567976Y-42758547D01*
X67163214Y-42615690D02*
X67210833Y-42615690D01*
X67258452Y-42639500D01*
X67282261Y-42663309D01*
X67306071Y-42710928D01*
X67329880Y-42806166D01*
X67329880Y-42925214D01*
X67306071Y-43020452D01*
X67282261Y-43068071D01*
X67258452Y-43091880D01*
X67210833Y-43115690D01*
X67163214Y-43115690D01*
X67115595Y-43091880D01*
X67091785Y-43068071D01*
X67067976Y-43020452D01*
X67044166Y-42925214D01*
X67044166Y-42806166D01*
X67067976Y-42710928D01*
X67091785Y-42663309D01*
X67115595Y-42639500D01*
X67163214Y-42615690D01*
X67639404Y-42615690D02*
X67687023Y-42615690D01*
X67734642Y-42639500D01*
X67758452Y-42663309D01*
X67782261Y-42710928D01*
X67806071Y-42806166D01*
X67806071Y-42925214D01*
X67782261Y-43020452D01*
X67758452Y-43068071D01*
X67734642Y-43091880D01*
X67687023Y-43115690D01*
X67639404Y-43115690D01*
X67591785Y-43091880D01*
X67567976Y-43068071D01*
X67544166Y-43020452D01*
X67520357Y-42925214D01*
X67520357Y-42806166D01*
X67544166Y-42710928D01*
X67567976Y-42663309D01*
X67591785Y-42639500D01*
X67639404Y-42615690D01*
X68020357Y-42782357D02*
X68020357Y-43115690D01*
X68020357Y-42829976D02*
X68044166Y-42806166D01*
X68091785Y-42782357D01*
X68163214Y-42782357D01*
X68210833Y-42806166D01*
X68234642Y-42853785D01*
X68234642Y-43115690D01*
X68639404Y-42853785D02*
X68472738Y-42853785D01*
X68472738Y-43115690D02*
X68472738Y-42615690D01*
X68710833Y-42615690D01*
X67306071Y-41898071D02*
X67282261Y-41921880D01*
X67210833Y-41945690D01*
X67163214Y-41945690D01*
X67091785Y-41921880D01*
X67044166Y-41874261D01*
X67020357Y-41826642D01*
X66996547Y-41731404D01*
X66996547Y-41659976D01*
X67020357Y-41564738D01*
X67044166Y-41517119D01*
X67091785Y-41469500D01*
X67163214Y-41445690D01*
X67210833Y-41445690D01*
X67282261Y-41469500D01*
X67306071Y-41493309D01*
X67782261Y-41945690D02*
X67496547Y-41945690D01*
X67639404Y-41945690D02*
X67639404Y-41445690D01*
X67591785Y-41517119D01*
X67544166Y-41564738D01*
X67496547Y-41588547D01*
X67948928Y-41445690D02*
X68258452Y-41445690D01*
X68091785Y-41636166D01*
X68163214Y-41636166D01*
X68210833Y-41659976D01*
X68234642Y-41683785D01*
X68258452Y-41731404D01*
X68258452Y-41850452D01*
X68234642Y-41898071D01*
X68210833Y-41921880D01*
X68163214Y-41945690D01*
X68020357Y-41945690D01*
X67972738Y-41921880D01*
X67948928Y-41898071D01*
G04 #@! TO.C,D1*
X59662190Y-28563047D02*
X59162190Y-28563047D01*
X59162190Y-28444000D01*
X59186000Y-28372571D01*
X59233619Y-28324952D01*
X59281238Y-28301142D01*
X59376476Y-28277333D01*
X59447904Y-28277333D01*
X59543142Y-28301142D01*
X59590761Y-28324952D01*
X59638380Y-28372571D01*
X59662190Y-28444000D01*
X59662190Y-28563047D01*
X59662190Y-27801142D02*
X59662190Y-28086857D01*
X59662190Y-27944000D02*
X59162190Y-27944000D01*
X59233619Y-27991619D01*
X59281238Y-28039238D01*
X59305047Y-28086857D01*
D15*
X59075000Y-26017142D02*
X59110714Y-26029047D01*
X59122619Y-26040952D01*
X59134523Y-26064761D01*
X59134523Y-26100476D01*
X59122619Y-26124285D01*
X59110714Y-26136190D01*
X59086904Y-26148095D01*
X58991666Y-26148095D01*
X58991666Y-25898095D01*
X59075000Y-25898095D01*
X59098809Y-25910000D01*
X59110714Y-25921904D01*
X59122619Y-25945714D01*
X59122619Y-25969523D01*
X59110714Y-25993333D01*
X59098809Y-26005238D01*
X59075000Y-26017142D01*
X58991666Y-26017142D01*
X59229761Y-26076666D02*
X59348809Y-26076666D01*
X59205952Y-26148095D02*
X59289285Y-25898095D01*
X59372619Y-26148095D01*
X59420238Y-25898095D02*
X59563095Y-25898095D01*
X59491666Y-26148095D02*
X59491666Y-25898095D01*
X59753571Y-25898095D02*
X59705952Y-25898095D01*
X59682142Y-25910000D01*
X59670238Y-25921904D01*
X59646428Y-25957619D01*
X59634523Y-26005238D01*
X59634523Y-26100476D01*
X59646428Y-26124285D01*
X59658333Y-26136190D01*
X59682142Y-26148095D01*
X59729761Y-26148095D01*
X59753571Y-26136190D01*
X59765476Y-26124285D01*
X59777380Y-26100476D01*
X59777380Y-26040952D01*
X59765476Y-26017142D01*
X59753571Y-26005238D01*
X59729761Y-25993333D01*
X59682142Y-25993333D01*
X59658333Y-26005238D01*
X59646428Y-26017142D01*
X59634523Y-26040952D01*
X59932142Y-25898095D02*
X59955952Y-25898095D01*
X59979761Y-25910000D01*
X59991666Y-25921904D01*
X60003571Y-25945714D01*
X60015476Y-25993333D01*
X60015476Y-26052857D01*
X60003571Y-26100476D01*
X59991666Y-26124285D01*
X59979761Y-26136190D01*
X59955952Y-26148095D01*
X59932142Y-26148095D01*
X59908333Y-26136190D01*
X59896428Y-26124285D01*
X59884523Y-26100476D01*
X59872619Y-26052857D01*
X59872619Y-25993333D01*
X59884523Y-25945714D01*
X59896428Y-25921904D01*
X59908333Y-25910000D01*
X59932142Y-25898095D01*
X60063095Y-26171904D02*
X60253571Y-26171904D01*
X60301190Y-26136190D02*
X60336904Y-26148095D01*
X60396428Y-26148095D01*
X60420238Y-26136190D01*
X60432142Y-26124285D01*
X60444047Y-26100476D01*
X60444047Y-26076666D01*
X60432142Y-26052857D01*
X60420238Y-26040952D01*
X60396428Y-26029047D01*
X60348809Y-26017142D01*
X60325000Y-26005238D01*
X60313095Y-25993333D01*
X60301190Y-25969523D01*
X60301190Y-25945714D01*
X60313095Y-25921904D01*
X60325000Y-25910000D01*
X60348809Y-25898095D01*
X60408333Y-25898095D01*
X60444047Y-25910000D01*
X60598809Y-25898095D02*
X60646428Y-25898095D01*
X60670238Y-25910000D01*
X60694047Y-25933809D01*
X60705952Y-25981428D01*
X60705952Y-26064761D01*
X60694047Y-26112380D01*
X60670238Y-26136190D01*
X60646428Y-26148095D01*
X60598809Y-26148095D01*
X60575000Y-26136190D01*
X60551190Y-26112380D01*
X60539285Y-26064761D01*
X60539285Y-25981428D01*
X60551190Y-25933809D01*
X60575000Y-25910000D01*
X60598809Y-25898095D01*
X60813095Y-26148095D02*
X60813095Y-25898095D01*
X60872619Y-25898095D01*
X60908333Y-25910000D01*
X60932142Y-25933809D01*
X60944047Y-25957619D01*
X60955952Y-26005238D01*
X60955952Y-26040952D01*
X60944047Y-26088571D01*
X60932142Y-26112380D01*
X60908333Y-26136190D01*
X60872619Y-26148095D01*
X60813095Y-26148095D01*
X61039285Y-25898095D02*
X61194047Y-25898095D01*
X61110714Y-25993333D01*
X61146428Y-25993333D01*
X61170238Y-26005238D01*
X61182142Y-26017142D01*
X61194047Y-26040952D01*
X61194047Y-26100476D01*
X61182142Y-26124285D01*
X61170238Y-26136190D01*
X61146428Y-26148095D01*
X61075000Y-26148095D01*
X61051190Y-26136190D01*
X61039285Y-26124285D01*
X61289285Y-25921904D02*
X61301190Y-25910000D01*
X61325000Y-25898095D01*
X61384523Y-25898095D01*
X61408333Y-25910000D01*
X61420238Y-25921904D01*
X61432142Y-25945714D01*
X61432142Y-25969523D01*
X61420238Y-26005238D01*
X61277380Y-26148095D01*
X61432142Y-26148095D01*
X61515476Y-25898095D02*
X61670238Y-25898095D01*
X61586904Y-25993333D01*
X61622619Y-25993333D01*
X61646428Y-26005238D01*
X61658333Y-26017142D01*
X61670238Y-26040952D01*
X61670238Y-26100476D01*
X61658333Y-26124285D01*
X61646428Y-26136190D01*
X61622619Y-26148095D01*
X61551190Y-26148095D01*
X61527380Y-26136190D01*
X61515476Y-26124285D01*
D14*
X59662190Y-28563047D02*
X59162190Y-28563047D01*
X59162190Y-28444000D01*
X59186000Y-28372571D01*
X59233619Y-28324952D01*
X59281238Y-28301142D01*
X59376476Y-28277333D01*
X59447904Y-28277333D01*
X59543142Y-28301142D01*
X59590761Y-28324952D01*
X59638380Y-28372571D01*
X59662190Y-28444000D01*
X59662190Y-28563047D01*
X59662190Y-27801142D02*
X59662190Y-28086857D01*
X59662190Y-27944000D02*
X59162190Y-27944000D01*
X59233619Y-27991619D01*
X59281238Y-28039238D01*
X59305047Y-28086857D01*
G04 #@! TO.C,D2*
X73354452Y-34289190D02*
X73354452Y-33789190D01*
X73473500Y-33789190D01*
X73544928Y-33813000D01*
X73592547Y-33860619D01*
X73616357Y-33908238D01*
X73640166Y-34003476D01*
X73640166Y-34074904D01*
X73616357Y-34170142D01*
X73592547Y-34217761D01*
X73544928Y-34265380D01*
X73473500Y-34289190D01*
X73354452Y-34289190D01*
X73830642Y-33836809D02*
X73854452Y-33813000D01*
X73902071Y-33789190D01*
X74021119Y-33789190D01*
X74068738Y-33813000D01*
X74092547Y-33836809D01*
X74116357Y-33884428D01*
X74116357Y-33932047D01*
X74092547Y-34003476D01*
X73806833Y-34289190D01*
X74116357Y-34289190D01*
X72961595Y-31949190D02*
X72723500Y-31949190D01*
X72723500Y-31449190D01*
X73128261Y-31687285D02*
X73294928Y-31687285D01*
X73366357Y-31949190D02*
X73128261Y-31949190D01*
X73128261Y-31449190D01*
X73366357Y-31449190D01*
X73580642Y-31949190D02*
X73580642Y-31449190D01*
X73699690Y-31449190D01*
X73771119Y-31473000D01*
X73818738Y-31520619D01*
X73842547Y-31568238D01*
X73866357Y-31663476D01*
X73866357Y-31734904D01*
X73842547Y-31830142D01*
X73818738Y-31877761D01*
X73771119Y-31925380D01*
X73699690Y-31949190D01*
X73580642Y-31949190D01*
X74723500Y-31473000D02*
X74675880Y-31449190D01*
X74604452Y-31449190D01*
X74533023Y-31473000D01*
X74485404Y-31520619D01*
X74461595Y-31568238D01*
X74437785Y-31663476D01*
X74437785Y-31734904D01*
X74461595Y-31830142D01*
X74485404Y-31877761D01*
X74533023Y-31925380D01*
X74604452Y-31949190D01*
X74652071Y-31949190D01*
X74723500Y-31925380D01*
X74747309Y-31901571D01*
X74747309Y-31734904D01*
X74652071Y-31734904D01*
X73354452Y-33119190D02*
X73354452Y-32619190D01*
X73473500Y-32619190D01*
X73544928Y-32643000D01*
X73592547Y-32690619D01*
X73616357Y-32738238D01*
X73640166Y-32833476D01*
X73640166Y-32904904D01*
X73616357Y-33000142D01*
X73592547Y-33047761D01*
X73544928Y-33095380D01*
X73473500Y-33119190D01*
X73354452Y-33119190D01*
X73830642Y-32666809D02*
X73854452Y-32643000D01*
X73902071Y-32619190D01*
X74021119Y-32619190D01*
X74068738Y-32643000D01*
X74092547Y-32666809D01*
X74116357Y-32714428D01*
X74116357Y-32762047D01*
X74092547Y-32833476D01*
X73806833Y-33119190D01*
X74116357Y-33119190D01*
G04 #@! TO.C,D3*
X73354452Y-37718190D02*
X73354452Y-37218190D01*
X73473500Y-37218190D01*
X73544928Y-37242000D01*
X73592547Y-37289619D01*
X73616357Y-37337238D01*
X73640166Y-37432476D01*
X73640166Y-37503904D01*
X73616357Y-37599142D01*
X73592547Y-37646761D01*
X73544928Y-37694380D01*
X73473500Y-37718190D01*
X73354452Y-37718190D01*
X73806833Y-37218190D02*
X74116357Y-37218190D01*
X73949690Y-37408666D01*
X74021119Y-37408666D01*
X74068738Y-37432476D01*
X74092547Y-37456285D01*
X74116357Y-37503904D01*
X74116357Y-37622952D01*
X74092547Y-37670571D01*
X74068738Y-37694380D01*
X74021119Y-37718190D01*
X73878261Y-37718190D01*
X73830642Y-37694380D01*
X73806833Y-37670571D01*
X72961595Y-35378190D02*
X72723500Y-35378190D01*
X72723500Y-34878190D01*
X73128261Y-35116285D02*
X73294928Y-35116285D01*
X73366357Y-35378190D02*
X73128261Y-35378190D01*
X73128261Y-34878190D01*
X73366357Y-34878190D01*
X73580642Y-35378190D02*
X73580642Y-34878190D01*
X73699690Y-34878190D01*
X73771119Y-34902000D01*
X73818738Y-34949619D01*
X73842547Y-34997238D01*
X73866357Y-35092476D01*
X73866357Y-35163904D01*
X73842547Y-35259142D01*
X73818738Y-35306761D01*
X73771119Y-35354380D01*
X73699690Y-35378190D01*
X73580642Y-35378190D01*
X74747309Y-35378190D02*
X74580642Y-35140095D01*
X74461595Y-35378190D02*
X74461595Y-34878190D01*
X74652071Y-34878190D01*
X74699690Y-34902000D01*
X74723500Y-34925809D01*
X74747309Y-34973428D01*
X74747309Y-35044857D01*
X74723500Y-35092476D01*
X74699690Y-35116285D01*
X74652071Y-35140095D01*
X74461595Y-35140095D01*
X73354452Y-36548190D02*
X73354452Y-36048190D01*
X73473500Y-36048190D01*
X73544928Y-36072000D01*
X73592547Y-36119619D01*
X73616357Y-36167238D01*
X73640166Y-36262476D01*
X73640166Y-36333904D01*
X73616357Y-36429142D01*
X73592547Y-36476761D01*
X73544928Y-36524380D01*
X73473500Y-36548190D01*
X73354452Y-36548190D01*
X73806833Y-36048190D02*
X74116357Y-36048190D01*
X73949690Y-36238666D01*
X74021119Y-36238666D01*
X74068738Y-36262476D01*
X74092547Y-36286285D01*
X74116357Y-36333904D01*
X74116357Y-36452952D01*
X74092547Y-36500571D01*
X74068738Y-36524380D01*
X74021119Y-36548190D01*
X73878261Y-36548190D01*
X73830642Y-36524380D01*
X73806833Y-36500571D01*
G04 #@! TO.C,D4*
X62622952Y-28637690D02*
X62622952Y-28137690D01*
X62742000Y-28137690D01*
X62813428Y-28161500D01*
X62861047Y-28209119D01*
X62884857Y-28256738D01*
X62908666Y-28351976D01*
X62908666Y-28423404D01*
X62884857Y-28518642D01*
X62861047Y-28566261D01*
X62813428Y-28613880D01*
X62742000Y-28637690D01*
X62622952Y-28637690D01*
X63337238Y-28304357D02*
X63337238Y-28637690D01*
X63218190Y-28113880D02*
X63099142Y-28471023D01*
X63408666Y-28471023D01*
X62230095Y-26297690D02*
X61992000Y-26297690D01*
X61992000Y-25797690D01*
X62396761Y-26035785D02*
X62563428Y-26035785D01*
X62634857Y-26297690D02*
X62396761Y-26297690D01*
X62396761Y-25797690D01*
X62634857Y-25797690D01*
X62849142Y-26297690D02*
X62849142Y-25797690D01*
X62968190Y-25797690D01*
X63039619Y-25821500D01*
X63087238Y-25869119D01*
X63111047Y-25916738D01*
X63134857Y-26011976D01*
X63134857Y-26083404D01*
X63111047Y-26178642D01*
X63087238Y-26226261D01*
X63039619Y-26273880D01*
X62968190Y-26297690D01*
X62849142Y-26297690D01*
X64015809Y-26297690D02*
X63849142Y-26059595D01*
X63730095Y-26297690D02*
X63730095Y-25797690D01*
X63920571Y-25797690D01*
X63968190Y-25821500D01*
X63992000Y-25845309D01*
X64015809Y-25892928D01*
X64015809Y-25964357D01*
X63992000Y-26011976D01*
X63968190Y-26035785D01*
X63920571Y-26059595D01*
X63730095Y-26059595D01*
X62622952Y-27467690D02*
X62622952Y-26967690D01*
X62742000Y-26967690D01*
X62813428Y-26991500D01*
X62861047Y-27039119D01*
X62884857Y-27086738D01*
X62908666Y-27181976D01*
X62908666Y-27253404D01*
X62884857Y-27348642D01*
X62861047Y-27396261D01*
X62813428Y-27443880D01*
X62742000Y-27467690D01*
X62622952Y-27467690D01*
X63337238Y-27134357D02*
X63337238Y-27467690D01*
X63218190Y-26943880D02*
X63099142Y-27301023D01*
X63408666Y-27301023D01*
G04 #@! TO.C,D5*
X58011190Y-41644047D02*
X57511190Y-41644047D01*
X57511190Y-41525000D01*
X57535000Y-41453571D01*
X57582619Y-41405952D01*
X57630238Y-41382142D01*
X57725476Y-41358333D01*
X57796904Y-41358333D01*
X57892142Y-41382142D01*
X57939761Y-41405952D01*
X57987380Y-41453571D01*
X58011190Y-41525000D01*
X58011190Y-41644047D01*
X57511190Y-40905952D02*
X57511190Y-41144047D01*
X57749285Y-41167857D01*
X57725476Y-41144047D01*
X57701666Y-41096428D01*
X57701666Y-40977380D01*
X57725476Y-40929761D01*
X57749285Y-40905952D01*
X57796904Y-40882142D01*
X57915952Y-40882142D01*
X57963571Y-40905952D01*
X57987380Y-40929761D01*
X58011190Y-40977380D01*
X58011190Y-41096428D01*
X57987380Y-41144047D01*
X57963571Y-41167857D01*
D15*
X57132142Y-41228000D02*
X57144047Y-41192285D01*
X57155952Y-41180380D01*
X57179761Y-41168476D01*
X57215476Y-41168476D01*
X57239285Y-41180380D01*
X57251190Y-41192285D01*
X57263095Y-41216095D01*
X57263095Y-41311333D01*
X57013095Y-41311333D01*
X57013095Y-41228000D01*
X57025000Y-41204190D01*
X57036904Y-41192285D01*
X57060714Y-41180380D01*
X57084523Y-41180380D01*
X57108333Y-41192285D01*
X57120238Y-41204190D01*
X57132142Y-41228000D01*
X57132142Y-41311333D01*
X57191666Y-41073238D02*
X57191666Y-40954190D01*
X57263095Y-41097047D02*
X57013095Y-41013714D01*
X57263095Y-40930380D01*
X57013095Y-40882761D02*
X57013095Y-40739904D01*
X57263095Y-40811333D02*
X57013095Y-40811333D01*
X57013095Y-40549428D02*
X57013095Y-40597047D01*
X57025000Y-40620857D01*
X57036904Y-40632761D01*
X57072619Y-40656571D01*
X57120238Y-40668476D01*
X57215476Y-40668476D01*
X57239285Y-40656571D01*
X57251190Y-40644666D01*
X57263095Y-40620857D01*
X57263095Y-40573238D01*
X57251190Y-40549428D01*
X57239285Y-40537523D01*
X57215476Y-40525619D01*
X57155952Y-40525619D01*
X57132142Y-40537523D01*
X57120238Y-40549428D01*
X57108333Y-40573238D01*
X57108333Y-40620857D01*
X57120238Y-40644666D01*
X57132142Y-40656571D01*
X57155952Y-40668476D01*
X57013095Y-40370857D02*
X57013095Y-40347047D01*
X57025000Y-40323238D01*
X57036904Y-40311333D01*
X57060714Y-40299428D01*
X57108333Y-40287523D01*
X57167857Y-40287523D01*
X57215476Y-40299428D01*
X57239285Y-40311333D01*
X57251190Y-40323238D01*
X57263095Y-40347047D01*
X57263095Y-40370857D01*
X57251190Y-40394666D01*
X57239285Y-40406571D01*
X57215476Y-40418476D01*
X57167857Y-40430380D01*
X57108333Y-40430380D01*
X57060714Y-40418476D01*
X57036904Y-40406571D01*
X57025000Y-40394666D01*
X57013095Y-40370857D01*
X57286904Y-40239904D02*
X57286904Y-40049428D01*
X57251190Y-40001809D02*
X57263095Y-39966095D01*
X57263095Y-39906571D01*
X57251190Y-39882761D01*
X57239285Y-39870857D01*
X57215476Y-39858952D01*
X57191666Y-39858952D01*
X57167857Y-39870857D01*
X57155952Y-39882761D01*
X57144047Y-39906571D01*
X57132142Y-39954190D01*
X57120238Y-39978000D01*
X57108333Y-39989904D01*
X57084523Y-40001809D01*
X57060714Y-40001809D01*
X57036904Y-39989904D01*
X57025000Y-39978000D01*
X57013095Y-39954190D01*
X57013095Y-39894666D01*
X57025000Y-39858952D01*
X57013095Y-39704190D02*
X57013095Y-39656571D01*
X57025000Y-39632761D01*
X57048809Y-39608952D01*
X57096428Y-39597047D01*
X57179761Y-39597047D01*
X57227380Y-39608952D01*
X57251190Y-39632761D01*
X57263095Y-39656571D01*
X57263095Y-39704190D01*
X57251190Y-39728000D01*
X57227380Y-39751809D01*
X57179761Y-39763714D01*
X57096428Y-39763714D01*
X57048809Y-39751809D01*
X57025000Y-39728000D01*
X57013095Y-39704190D01*
X57263095Y-39489904D02*
X57013095Y-39489904D01*
X57013095Y-39430380D01*
X57025000Y-39394666D01*
X57048809Y-39370857D01*
X57072619Y-39358952D01*
X57120238Y-39347047D01*
X57155952Y-39347047D01*
X57203571Y-39358952D01*
X57227380Y-39370857D01*
X57251190Y-39394666D01*
X57263095Y-39430380D01*
X57263095Y-39489904D01*
X57013095Y-39263714D02*
X57013095Y-39108952D01*
X57108333Y-39192285D01*
X57108333Y-39156571D01*
X57120238Y-39132761D01*
X57132142Y-39120857D01*
X57155952Y-39108952D01*
X57215476Y-39108952D01*
X57239285Y-39120857D01*
X57251190Y-39132761D01*
X57263095Y-39156571D01*
X57263095Y-39228000D01*
X57251190Y-39251809D01*
X57239285Y-39263714D01*
X57036904Y-39013714D02*
X57025000Y-39001809D01*
X57013095Y-38978000D01*
X57013095Y-38918476D01*
X57025000Y-38894666D01*
X57036904Y-38882761D01*
X57060714Y-38870857D01*
X57084523Y-38870857D01*
X57120238Y-38882761D01*
X57263095Y-39025619D01*
X57263095Y-38870857D01*
X57013095Y-38787523D02*
X57013095Y-38632761D01*
X57108333Y-38716095D01*
X57108333Y-38680380D01*
X57120238Y-38656571D01*
X57132142Y-38644666D01*
X57155952Y-38632761D01*
X57215476Y-38632761D01*
X57239285Y-38644666D01*
X57251190Y-38656571D01*
X57263095Y-38680380D01*
X57263095Y-38751809D01*
X57251190Y-38775619D01*
X57239285Y-38787523D01*
D14*
X56995190Y-42025047D02*
X56495190Y-42025047D01*
X56495190Y-41906000D01*
X56519000Y-41834571D01*
X56566619Y-41786952D01*
X56614238Y-41763142D01*
X56709476Y-41739333D01*
X56780904Y-41739333D01*
X56876142Y-41763142D01*
X56923761Y-41786952D01*
X56971380Y-41834571D01*
X56995190Y-41906000D01*
X56995190Y-42025047D01*
X56495190Y-41286952D02*
X56495190Y-41525047D01*
X56733285Y-41548857D01*
X56709476Y-41525047D01*
X56685666Y-41477428D01*
X56685666Y-41358380D01*
X56709476Y-41310761D01*
X56733285Y-41286952D01*
X56780904Y-41263142D01*
X56899952Y-41263142D01*
X56947571Y-41286952D01*
X56971380Y-41310761D01*
X56995190Y-41358380D01*
X56995190Y-41477428D01*
X56971380Y-41525047D01*
X56947571Y-41548857D01*
G04 #@! TO.C,J1*
X46103333Y-43921190D02*
X46103333Y-44278333D01*
X46079523Y-44349761D01*
X46031904Y-44397380D01*
X45960476Y-44421190D01*
X45912857Y-44421190D01*
X46603333Y-44421190D02*
X46317619Y-44421190D01*
X46460476Y-44421190D02*
X46460476Y-43921190D01*
X46412857Y-43992619D01*
X46365238Y-44040238D01*
X46317619Y-44064047D01*
X38334285Y-27921190D02*
X38334285Y-28325952D01*
X38358095Y-28373571D01*
X38381904Y-28397380D01*
X38429523Y-28421190D01*
X38524761Y-28421190D01*
X38572380Y-28397380D01*
X38596190Y-28373571D01*
X38620000Y-28325952D01*
X38620000Y-27921190D01*
X38834285Y-28397380D02*
X38905714Y-28421190D01*
X39024761Y-28421190D01*
X39072380Y-28397380D01*
X39096190Y-28373571D01*
X39120000Y-28325952D01*
X39120000Y-28278333D01*
X39096190Y-28230714D01*
X39072380Y-28206904D01*
X39024761Y-28183095D01*
X38929523Y-28159285D01*
X38881904Y-28135476D01*
X38858095Y-28111666D01*
X38834285Y-28064047D01*
X38834285Y-28016428D01*
X38858095Y-27968809D01*
X38881904Y-27945000D01*
X38929523Y-27921190D01*
X39048571Y-27921190D01*
X39120000Y-27945000D01*
X39500952Y-28159285D02*
X39572380Y-28183095D01*
X39596190Y-28206904D01*
X39620000Y-28254523D01*
X39620000Y-28325952D01*
X39596190Y-28373571D01*
X39572380Y-28397380D01*
X39524761Y-28421190D01*
X39334285Y-28421190D01*
X39334285Y-27921190D01*
X39500952Y-27921190D01*
X39548571Y-27945000D01*
X39572380Y-27968809D01*
X39596190Y-28016428D01*
X39596190Y-28064047D01*
X39572380Y-28111666D01*
X39548571Y-28135476D01*
X39500952Y-28159285D01*
X39334285Y-28159285D01*
X39715238Y-28468809D02*
X40096190Y-28468809D01*
X40191428Y-28278333D02*
X40429523Y-28278333D01*
X40143809Y-28421190D02*
X40310476Y-27921190D01*
X40477142Y-28421190D01*
X44146190Y-37959285D02*
X43646190Y-37959285D01*
X43646190Y-37768809D01*
X43670000Y-37721190D01*
X43693809Y-37697380D01*
X43741428Y-37673571D01*
X43812857Y-37673571D01*
X43860476Y-37697380D01*
X43884285Y-37721190D01*
X43908095Y-37768809D01*
X43908095Y-37959285D01*
X44098571Y-37173571D02*
X44122380Y-37197380D01*
X44146190Y-37268809D01*
X44146190Y-37316428D01*
X44122380Y-37387857D01*
X44074761Y-37435476D01*
X44027142Y-37459285D01*
X43931904Y-37483095D01*
X43860476Y-37483095D01*
X43765238Y-37459285D01*
X43717619Y-37435476D01*
X43670000Y-37387857D01*
X43646190Y-37316428D01*
X43646190Y-37268809D01*
X43670000Y-37197380D01*
X43693809Y-37173571D01*
X43884285Y-36792619D02*
X43908095Y-36721190D01*
X43931904Y-36697380D01*
X43979523Y-36673571D01*
X44050952Y-36673571D01*
X44098571Y-36697380D01*
X44122380Y-36721190D01*
X44146190Y-36768809D01*
X44146190Y-36959285D01*
X43646190Y-36959285D01*
X43646190Y-36792619D01*
X43670000Y-36745000D01*
X43693809Y-36721190D01*
X43741428Y-36697380D01*
X43789047Y-36697380D01*
X43836666Y-36721190D01*
X43860476Y-36745000D01*
X43884285Y-36792619D01*
X43884285Y-36959285D01*
X43884285Y-36078333D02*
X43884285Y-35911666D01*
X44146190Y-35840238D02*
X44146190Y-36078333D01*
X43646190Y-36078333D01*
X43646190Y-35840238D01*
X44146190Y-35411666D02*
X43646190Y-35411666D01*
X44122380Y-35411666D02*
X44146190Y-35459285D01*
X44146190Y-35554523D01*
X44122380Y-35602142D01*
X44098571Y-35625952D01*
X44050952Y-35649761D01*
X43908095Y-35649761D01*
X43860476Y-35625952D01*
X43836666Y-35602142D01*
X43812857Y-35554523D01*
X43812857Y-35459285D01*
X43836666Y-35411666D01*
X43812857Y-34959285D02*
X44217619Y-34959285D01*
X44265238Y-34983095D01*
X44289047Y-35006904D01*
X44312857Y-35054523D01*
X44312857Y-35125952D01*
X44289047Y-35173571D01*
X44122380Y-34959285D02*
X44146190Y-35006904D01*
X44146190Y-35102142D01*
X44122380Y-35149761D01*
X44098571Y-35173571D01*
X44050952Y-35197380D01*
X43908095Y-35197380D01*
X43860476Y-35173571D01*
X43836666Y-35149761D01*
X43812857Y-35102142D01*
X43812857Y-35006904D01*
X43836666Y-34959285D01*
X44122380Y-34530714D02*
X44146190Y-34578333D01*
X44146190Y-34673571D01*
X44122380Y-34721190D01*
X44074761Y-34745000D01*
X43884285Y-34745000D01*
X43836666Y-34721190D01*
X43812857Y-34673571D01*
X43812857Y-34578333D01*
X43836666Y-34530714D01*
X43884285Y-34506904D01*
X43931904Y-34506904D01*
X43979523Y-34745000D01*
X45096190Y-36361666D02*
X45453333Y-36361666D01*
X45524761Y-36385476D01*
X45572380Y-36433095D01*
X45596190Y-36504523D01*
X45596190Y-36552142D01*
X45596190Y-35861666D02*
X45596190Y-36147380D01*
X45596190Y-36004523D02*
X45096190Y-36004523D01*
X45167619Y-36052142D01*
X45215238Y-36099761D01*
X45239047Y-36147380D01*
G04 #@! TO.C,J3*
X55653333Y-40741190D02*
X55653333Y-41098333D01*
X55629523Y-41169761D01*
X55581904Y-41217380D01*
X55510476Y-41241190D01*
X55462857Y-41241190D01*
X55843809Y-40741190D02*
X56153333Y-40741190D01*
X55986666Y-40931666D01*
X56058095Y-40931666D01*
X56105714Y-40955476D01*
X56129523Y-40979285D01*
X56153333Y-41026904D01*
X56153333Y-41145952D01*
X56129523Y-41193571D01*
X56105714Y-41217380D01*
X56058095Y-41241190D01*
X55915238Y-41241190D01*
X55867619Y-41217380D01*
X55843809Y-41193571D01*
X53950952Y-47393571D02*
X53927142Y-47417380D01*
X53855714Y-47441190D01*
X53808095Y-47441190D01*
X53736666Y-47417380D01*
X53689047Y-47369761D01*
X53665238Y-47322142D01*
X53641428Y-47226904D01*
X53641428Y-47155476D01*
X53665238Y-47060238D01*
X53689047Y-47012619D01*
X53736666Y-46965000D01*
X53808095Y-46941190D01*
X53855714Y-46941190D01*
X53927142Y-46965000D01*
X53950952Y-46988809D01*
X54236666Y-47441190D02*
X54189047Y-47417380D01*
X54165238Y-47393571D01*
X54141428Y-47345952D01*
X54141428Y-47203095D01*
X54165238Y-47155476D01*
X54189047Y-47131666D01*
X54236666Y-47107857D01*
X54308095Y-47107857D01*
X54355714Y-47131666D01*
X54379523Y-47155476D01*
X54403333Y-47203095D01*
X54403333Y-47345952D01*
X54379523Y-47393571D01*
X54355714Y-47417380D01*
X54308095Y-47441190D01*
X54236666Y-47441190D01*
X54617619Y-47107857D02*
X54617619Y-47441190D01*
X54617619Y-47155476D02*
X54641428Y-47131666D01*
X54689047Y-47107857D01*
X54760476Y-47107857D01*
X54808095Y-47131666D01*
X54831904Y-47179285D01*
X54831904Y-47441190D01*
X55070000Y-47107857D02*
X55070000Y-47441190D01*
X55070000Y-47155476D02*
X55093809Y-47131666D01*
X55141428Y-47107857D01*
X55212857Y-47107857D01*
X55260476Y-47131666D01*
X55284285Y-47179285D01*
X55284285Y-47441190D01*
X55403333Y-47488809D02*
X55784285Y-47488809D01*
X55998571Y-46941190D02*
X56046190Y-46941190D01*
X56093809Y-46965000D01*
X56117619Y-46988809D01*
X56141428Y-47036428D01*
X56165238Y-47131666D01*
X56165238Y-47250714D01*
X56141428Y-47345952D01*
X56117619Y-47393571D01*
X56093809Y-47417380D01*
X56046190Y-47441190D01*
X55998571Y-47441190D01*
X55950952Y-47417380D01*
X55927142Y-47393571D01*
X55903333Y-47345952D01*
X55879523Y-47250714D01*
X55879523Y-47131666D01*
X55903333Y-47036428D01*
X55927142Y-46988809D01*
X55950952Y-46965000D01*
X55998571Y-46941190D01*
X56641428Y-47441190D02*
X56355714Y-47441190D01*
X56498571Y-47441190D02*
X56498571Y-46941190D01*
X56450952Y-47012619D01*
X56403333Y-47060238D01*
X56355714Y-47084047D01*
X56808095Y-47441190D02*
X57070000Y-47107857D01*
X56808095Y-47107857D02*
X57070000Y-47441190D01*
X57355714Y-46941190D02*
X57403333Y-46941190D01*
X57450952Y-46965000D01*
X57474761Y-46988809D01*
X57498571Y-47036428D01*
X57522380Y-47131666D01*
X57522380Y-47250714D01*
X57498571Y-47345952D01*
X57474761Y-47393571D01*
X57450952Y-47417380D01*
X57403333Y-47441190D01*
X57355714Y-47441190D01*
X57308095Y-47417380D01*
X57284285Y-47393571D01*
X57260476Y-47345952D01*
X57236666Y-47250714D01*
X57236666Y-47131666D01*
X57260476Y-47036428D01*
X57284285Y-46988809D01*
X57308095Y-46965000D01*
X57355714Y-46941190D01*
X57950952Y-47107857D02*
X57950952Y-47441190D01*
X57831904Y-46917380D02*
X57712857Y-47274523D01*
X58022380Y-47274523D01*
X55653333Y-45041190D02*
X55653333Y-45398333D01*
X55629523Y-45469761D01*
X55581904Y-45517380D01*
X55510476Y-45541190D01*
X55462857Y-45541190D01*
X55843809Y-45041190D02*
X56153333Y-45041190D01*
X55986666Y-45231666D01*
X56058095Y-45231666D01*
X56105714Y-45255476D01*
X56129523Y-45279285D01*
X56153333Y-45326904D01*
X56153333Y-45445952D01*
X56129523Y-45493571D01*
X56105714Y-45517380D01*
X56058095Y-45541190D01*
X55915238Y-45541190D01*
X55867619Y-45517380D01*
X55843809Y-45493571D01*
G04 #@! TO.C,R2*
X51986666Y-34362190D02*
X51820000Y-34124095D01*
X51700952Y-34362190D02*
X51700952Y-33862190D01*
X51891428Y-33862190D01*
X51939047Y-33886000D01*
X51962857Y-33909809D01*
X51986666Y-33957428D01*
X51986666Y-34028857D01*
X51962857Y-34076476D01*
X51939047Y-34100285D01*
X51891428Y-34124095D01*
X51700952Y-34124095D01*
X52177142Y-33909809D02*
X52200952Y-33886000D01*
X52248571Y-33862190D01*
X52367619Y-33862190D01*
X52415238Y-33886000D01*
X52439047Y-33909809D01*
X52462857Y-33957428D01*
X52462857Y-34005047D01*
X52439047Y-34076476D01*
X52153333Y-34362190D01*
X52462857Y-34362190D01*
X51772380Y-36702190D02*
X51486666Y-36702190D01*
X51629523Y-36702190D02*
X51629523Y-36202190D01*
X51581904Y-36273619D01*
X51534285Y-36321238D01*
X51486666Y-36345047D01*
X51986666Y-36702190D02*
X51986666Y-36202190D01*
X52034285Y-36511714D02*
X52177142Y-36702190D01*
X52177142Y-36368857D02*
X51986666Y-36559333D01*
X52629523Y-36202190D02*
X52391428Y-36202190D01*
X52367619Y-36440285D01*
X52391428Y-36416476D01*
X52439047Y-36392666D01*
X52558095Y-36392666D01*
X52605714Y-36416476D01*
X52629523Y-36440285D01*
X52653333Y-36487904D01*
X52653333Y-36606952D01*
X52629523Y-36654571D01*
X52605714Y-36678380D01*
X52558095Y-36702190D01*
X52439047Y-36702190D01*
X52391428Y-36678380D01*
X52367619Y-36654571D01*
X51986666Y-35532190D02*
X51820000Y-35294095D01*
X51700952Y-35532190D02*
X51700952Y-35032190D01*
X51891428Y-35032190D01*
X51939047Y-35056000D01*
X51962857Y-35079809D01*
X51986666Y-35127428D01*
X51986666Y-35198857D01*
X51962857Y-35246476D01*
X51939047Y-35270285D01*
X51891428Y-35294095D01*
X51700952Y-35294095D01*
X52177142Y-35079809D02*
X52200952Y-35056000D01*
X52248571Y-35032190D01*
X52367619Y-35032190D01*
X52415238Y-35056000D01*
X52439047Y-35079809D01*
X52462857Y-35127428D01*
X52462857Y-35175047D01*
X52439047Y-35246476D01*
X52153333Y-35532190D01*
X52462857Y-35532190D01*
G04 #@! TO.C,R4*
X57349190Y-37103833D02*
X57111095Y-37270500D01*
X57349190Y-37389547D02*
X56849190Y-37389547D01*
X56849190Y-37199071D01*
X56873000Y-37151452D01*
X56896809Y-37127642D01*
X56944428Y-37103833D01*
X57015857Y-37103833D01*
X57063476Y-37127642D01*
X57087285Y-37151452D01*
X57111095Y-37199071D01*
X57111095Y-37389547D01*
X57015857Y-36675261D02*
X57349190Y-36675261D01*
X56825380Y-36794309D02*
X57182523Y-36913357D01*
X57182523Y-36603833D01*
X59689190Y-37556214D02*
X59689190Y-37841928D01*
X59689190Y-37699071D02*
X59189190Y-37699071D01*
X59260619Y-37746690D01*
X59308238Y-37794309D01*
X59332047Y-37841928D01*
X59189190Y-37246690D02*
X59189190Y-37199071D01*
X59213000Y-37151452D01*
X59236809Y-37127642D01*
X59284428Y-37103833D01*
X59379666Y-37080023D01*
X59498714Y-37080023D01*
X59593952Y-37103833D01*
X59641571Y-37127642D01*
X59665380Y-37151452D01*
X59689190Y-37199071D01*
X59689190Y-37246690D01*
X59665380Y-37294309D01*
X59641571Y-37318119D01*
X59593952Y-37341928D01*
X59498714Y-37365738D01*
X59379666Y-37365738D01*
X59284428Y-37341928D01*
X59236809Y-37318119D01*
X59213000Y-37294309D01*
X59189190Y-37246690D01*
X59189190Y-36770500D02*
X59189190Y-36722880D01*
X59213000Y-36675261D01*
X59236809Y-36651452D01*
X59284428Y-36627642D01*
X59379666Y-36603833D01*
X59498714Y-36603833D01*
X59593952Y-36627642D01*
X59641571Y-36651452D01*
X59665380Y-36675261D01*
X59689190Y-36722880D01*
X59689190Y-36770500D01*
X59665380Y-36818119D01*
X59641571Y-36841928D01*
X59593952Y-36865738D01*
X59498714Y-36889547D01*
X59379666Y-36889547D01*
X59284428Y-36865738D01*
X59236809Y-36841928D01*
X59213000Y-36818119D01*
X59189190Y-36770500D01*
X59689190Y-36389547D02*
X59189190Y-36389547D01*
X59498714Y-36341928D02*
X59689190Y-36199071D01*
X59355857Y-36199071D02*
X59546333Y-36389547D01*
X58519190Y-37103833D02*
X58281095Y-37270500D01*
X58519190Y-37389547D02*
X58019190Y-37389547D01*
X58019190Y-37199071D01*
X58043000Y-37151452D01*
X58066809Y-37127642D01*
X58114428Y-37103833D01*
X58185857Y-37103833D01*
X58233476Y-37127642D01*
X58257285Y-37151452D01*
X58281095Y-37199071D01*
X58281095Y-37389547D01*
X58185857Y-36675261D02*
X58519190Y-36675261D01*
X57995380Y-36794309D02*
X58352523Y-36913357D01*
X58352523Y-36603833D01*
G04 #@! TO.C,R5*
X58011190Y-38564333D02*
X57773095Y-38731000D01*
X58011190Y-38850047D02*
X57511190Y-38850047D01*
X57511190Y-38659571D01*
X57535000Y-38611952D01*
X57558809Y-38588142D01*
X57606428Y-38564333D01*
X57677857Y-38564333D01*
X57725476Y-38588142D01*
X57749285Y-38611952D01*
X57773095Y-38659571D01*
X57773095Y-38850047D01*
X57511190Y-38111952D02*
X57511190Y-38350047D01*
X57749285Y-38373857D01*
X57725476Y-38350047D01*
X57701666Y-38302428D01*
X57701666Y-38183380D01*
X57725476Y-38135761D01*
X57749285Y-38111952D01*
X57796904Y-38088142D01*
X57915952Y-38088142D01*
X57963571Y-38111952D01*
X57987380Y-38135761D01*
X58011190Y-38183380D01*
X58011190Y-38302428D01*
X57987380Y-38350047D01*
X57963571Y-38373857D01*
X59355857Y-40286738D02*
X59689190Y-40286738D01*
X59165380Y-40405785D02*
X59522523Y-40524833D01*
X59522523Y-40215309D01*
X59689190Y-40024833D02*
X59189190Y-40024833D01*
X59498714Y-39977214D02*
X59689190Y-39834357D01*
X59355857Y-39834357D02*
X59546333Y-40024833D01*
X59189190Y-39667690D02*
X59189190Y-39334357D01*
X59689190Y-39548642D01*
X58519190Y-40024833D02*
X58281095Y-40191500D01*
X58519190Y-40310547D02*
X58019190Y-40310547D01*
X58019190Y-40120071D01*
X58043000Y-40072452D01*
X58066809Y-40048642D01*
X58114428Y-40024833D01*
X58185857Y-40024833D01*
X58233476Y-40048642D01*
X58257285Y-40072452D01*
X58281095Y-40120071D01*
X58281095Y-40310547D01*
X58019190Y-39572452D02*
X58019190Y-39810547D01*
X58257285Y-39834357D01*
X58233476Y-39810547D01*
X58209666Y-39762928D01*
X58209666Y-39643880D01*
X58233476Y-39596261D01*
X58257285Y-39572452D01*
X58304904Y-39548642D01*
X58423952Y-39548642D01*
X58471571Y-39572452D01*
X58495380Y-39596261D01*
X58519190Y-39643880D01*
X58519190Y-39762928D01*
X58495380Y-39810547D01*
X58471571Y-39834357D01*
G04 #@! TO.C,R6*
X60768690Y-40024833D02*
X60530595Y-40191500D01*
X60768690Y-40310547D02*
X60268690Y-40310547D01*
X60268690Y-40120071D01*
X60292500Y-40072452D01*
X60316309Y-40048642D01*
X60363928Y-40024833D01*
X60435357Y-40024833D01*
X60482976Y-40048642D01*
X60506785Y-40072452D01*
X60530595Y-40120071D01*
X60530595Y-40310547D01*
X60268690Y-39596261D02*
X60268690Y-39691500D01*
X60292500Y-39739119D01*
X60316309Y-39762928D01*
X60387738Y-39810547D01*
X60482976Y-39834357D01*
X60673452Y-39834357D01*
X60721071Y-39810547D01*
X60744880Y-39786738D01*
X60768690Y-39739119D01*
X60768690Y-39643880D01*
X60744880Y-39596261D01*
X60721071Y-39572452D01*
X60673452Y-39548642D01*
X60554404Y-39548642D01*
X60506785Y-39572452D01*
X60482976Y-39596261D01*
X60459166Y-39643880D01*
X60459166Y-39739119D01*
X60482976Y-39786738D01*
X60506785Y-39810547D01*
X60554404Y-39834357D01*
X58095357Y-40286738D02*
X58428690Y-40286738D01*
X57904880Y-40405785D02*
X58262023Y-40524833D01*
X58262023Y-40215309D01*
X58428690Y-40024833D02*
X57928690Y-40024833D01*
X58238214Y-39977214D02*
X58428690Y-39834357D01*
X58095357Y-39834357D02*
X58285833Y-40024833D01*
X57928690Y-39667690D02*
X57928690Y-39334357D01*
X58428690Y-39548642D01*
X59598690Y-40024833D02*
X59360595Y-40191500D01*
X59598690Y-40310547D02*
X59098690Y-40310547D01*
X59098690Y-40120071D01*
X59122500Y-40072452D01*
X59146309Y-40048642D01*
X59193928Y-40024833D01*
X59265357Y-40024833D01*
X59312976Y-40048642D01*
X59336785Y-40072452D01*
X59360595Y-40120071D01*
X59360595Y-40310547D01*
X59098690Y-39596261D02*
X59098690Y-39691500D01*
X59122500Y-39739119D01*
X59146309Y-39762928D01*
X59217738Y-39810547D01*
X59312976Y-39834357D01*
X59503452Y-39834357D01*
X59551071Y-39810547D01*
X59574880Y-39786738D01*
X59598690Y-39739119D01*
X59598690Y-39643880D01*
X59574880Y-39596261D01*
X59551071Y-39572452D01*
X59503452Y-39548642D01*
X59384404Y-39548642D01*
X59336785Y-39572452D01*
X59312976Y-39596261D01*
X59289166Y-39643880D01*
X59289166Y-39739119D01*
X59312976Y-39786738D01*
X59336785Y-39810547D01*
X59384404Y-39834357D01*
G04 #@! TO.C,R7*
X67099666Y-29091690D02*
X66933000Y-28853595D01*
X66813952Y-29091690D02*
X66813952Y-28591690D01*
X67004428Y-28591690D01*
X67052047Y-28615500D01*
X67075857Y-28639309D01*
X67099666Y-28686928D01*
X67099666Y-28758357D01*
X67075857Y-28805976D01*
X67052047Y-28829785D01*
X67004428Y-28853595D01*
X66813952Y-28853595D01*
X67266333Y-28591690D02*
X67599666Y-28591690D01*
X67385380Y-29091690D01*
X66647285Y-31431690D02*
X66361571Y-31431690D01*
X66504428Y-31431690D02*
X66504428Y-30931690D01*
X66456809Y-31003119D01*
X66409190Y-31050738D01*
X66361571Y-31074547D01*
X66956809Y-30931690D02*
X67004428Y-30931690D01*
X67052047Y-30955500D01*
X67075857Y-30979309D01*
X67099666Y-31026928D01*
X67123476Y-31122166D01*
X67123476Y-31241214D01*
X67099666Y-31336452D01*
X67075857Y-31384071D01*
X67052047Y-31407880D01*
X67004428Y-31431690D01*
X66956809Y-31431690D01*
X66909190Y-31407880D01*
X66885380Y-31384071D01*
X66861571Y-31336452D01*
X66837761Y-31241214D01*
X66837761Y-31122166D01*
X66861571Y-31026928D01*
X66885380Y-30979309D01*
X66909190Y-30955500D01*
X66956809Y-30931690D01*
X67433000Y-30931690D02*
X67480619Y-30931690D01*
X67528238Y-30955500D01*
X67552047Y-30979309D01*
X67575857Y-31026928D01*
X67599666Y-31122166D01*
X67599666Y-31241214D01*
X67575857Y-31336452D01*
X67552047Y-31384071D01*
X67528238Y-31407880D01*
X67480619Y-31431690D01*
X67433000Y-31431690D01*
X67385380Y-31407880D01*
X67361571Y-31384071D01*
X67337761Y-31336452D01*
X67313952Y-31241214D01*
X67313952Y-31122166D01*
X67337761Y-31026928D01*
X67361571Y-30979309D01*
X67385380Y-30955500D01*
X67433000Y-30931690D01*
X67813952Y-31431690D02*
X67813952Y-30931690D01*
X67861571Y-31241214D02*
X68004428Y-31431690D01*
X68004428Y-31098357D02*
X67813952Y-31288833D01*
X67099666Y-30261690D02*
X66933000Y-30023595D01*
X66813952Y-30261690D02*
X66813952Y-29761690D01*
X67004428Y-29761690D01*
X67052047Y-29785500D01*
X67075857Y-29809309D01*
X67099666Y-29856928D01*
X67099666Y-29928357D01*
X67075857Y-29975976D01*
X67052047Y-29999785D01*
X67004428Y-30023595D01*
X66813952Y-30023595D01*
X67266333Y-29761690D02*
X67599666Y-29761690D01*
X67385380Y-30261690D01*
G04 #@! TO.C,R8*
X73640166Y-33092190D02*
X73473500Y-32854095D01*
X73354452Y-33092190D02*
X73354452Y-32592190D01*
X73544928Y-32592190D01*
X73592547Y-32616000D01*
X73616357Y-32639809D01*
X73640166Y-32687428D01*
X73640166Y-32758857D01*
X73616357Y-32806476D01*
X73592547Y-32830285D01*
X73544928Y-32854095D01*
X73354452Y-32854095D01*
X73925880Y-32806476D02*
X73878261Y-32782666D01*
X73854452Y-32758857D01*
X73830642Y-32711238D01*
X73830642Y-32687428D01*
X73854452Y-32639809D01*
X73878261Y-32616000D01*
X73925880Y-32592190D01*
X74021119Y-32592190D01*
X74068738Y-32616000D01*
X74092547Y-32639809D01*
X74116357Y-32687428D01*
X74116357Y-32711238D01*
X74092547Y-32758857D01*
X74068738Y-32782666D01*
X74021119Y-32806476D01*
X73925880Y-32806476D01*
X73878261Y-32830285D01*
X73854452Y-32854095D01*
X73830642Y-32901714D01*
X73830642Y-32996952D01*
X73854452Y-33044571D01*
X73878261Y-33068380D01*
X73925880Y-33092190D01*
X74021119Y-33092190D01*
X74068738Y-33068380D01*
X74092547Y-33044571D01*
X74116357Y-32996952D01*
X74116357Y-32901714D01*
X74092547Y-32854095D01*
X74068738Y-32830285D01*
X74021119Y-32806476D01*
X73390166Y-35432190D02*
X73104452Y-35432190D01*
X73247309Y-35432190D02*
X73247309Y-34932190D01*
X73199690Y-35003619D01*
X73152071Y-35051238D01*
X73104452Y-35075047D01*
X73699690Y-34932190D02*
X73747309Y-34932190D01*
X73794928Y-34956000D01*
X73818738Y-34979809D01*
X73842547Y-35027428D01*
X73866357Y-35122666D01*
X73866357Y-35241714D01*
X73842547Y-35336952D01*
X73818738Y-35384571D01*
X73794928Y-35408380D01*
X73747309Y-35432190D01*
X73699690Y-35432190D01*
X73652071Y-35408380D01*
X73628261Y-35384571D01*
X73604452Y-35336952D01*
X73580642Y-35241714D01*
X73580642Y-35122666D01*
X73604452Y-35027428D01*
X73628261Y-34979809D01*
X73652071Y-34956000D01*
X73699690Y-34932190D01*
X74175880Y-34932190D02*
X74223500Y-34932190D01*
X74271119Y-34956000D01*
X74294928Y-34979809D01*
X74318738Y-35027428D01*
X74342547Y-35122666D01*
X74342547Y-35241714D01*
X74318738Y-35336952D01*
X74294928Y-35384571D01*
X74271119Y-35408380D01*
X74223500Y-35432190D01*
X74175880Y-35432190D01*
X74128261Y-35408380D01*
X74104452Y-35384571D01*
X74080642Y-35336952D01*
X74056833Y-35241714D01*
X74056833Y-35122666D01*
X74080642Y-35027428D01*
X74104452Y-34979809D01*
X74128261Y-34956000D01*
X74175880Y-34932190D01*
X73640166Y-34262190D02*
X73473500Y-34024095D01*
X73354452Y-34262190D02*
X73354452Y-33762190D01*
X73544928Y-33762190D01*
X73592547Y-33786000D01*
X73616357Y-33809809D01*
X73640166Y-33857428D01*
X73640166Y-33928857D01*
X73616357Y-33976476D01*
X73592547Y-34000285D01*
X73544928Y-34024095D01*
X73354452Y-34024095D01*
X73925880Y-33976476D02*
X73878261Y-33952666D01*
X73854452Y-33928857D01*
X73830642Y-33881238D01*
X73830642Y-33857428D01*
X73854452Y-33809809D01*
X73878261Y-33786000D01*
X73925880Y-33762190D01*
X74021119Y-33762190D01*
X74068738Y-33786000D01*
X74092547Y-33809809D01*
X74116357Y-33857428D01*
X74116357Y-33881238D01*
X74092547Y-33928857D01*
X74068738Y-33952666D01*
X74021119Y-33976476D01*
X73925880Y-33976476D01*
X73878261Y-34000285D01*
X73854452Y-34024095D01*
X73830642Y-34071714D01*
X73830642Y-34166952D01*
X73854452Y-34214571D01*
X73878261Y-34238380D01*
X73925880Y-34262190D01*
X74021119Y-34262190D01*
X74068738Y-34238380D01*
X74092547Y-34214571D01*
X74116357Y-34166952D01*
X74116357Y-34071714D01*
X74092547Y-34024095D01*
X74068738Y-34000285D01*
X74021119Y-33976476D01*
G04 #@! TO.C,R9*
X73640166Y-34235190D02*
X73473500Y-33997095D01*
X73354452Y-34235190D02*
X73354452Y-33735190D01*
X73544928Y-33735190D01*
X73592547Y-33759000D01*
X73616357Y-33782809D01*
X73640166Y-33830428D01*
X73640166Y-33901857D01*
X73616357Y-33949476D01*
X73592547Y-33973285D01*
X73544928Y-33997095D01*
X73354452Y-33997095D01*
X73878261Y-34235190D02*
X73973500Y-34235190D01*
X74021119Y-34211380D01*
X74044928Y-34187571D01*
X74092547Y-34116142D01*
X74116357Y-34020904D01*
X74116357Y-33830428D01*
X74092547Y-33782809D01*
X74068738Y-33759000D01*
X74021119Y-33735190D01*
X73925880Y-33735190D01*
X73878261Y-33759000D01*
X73854452Y-33782809D01*
X73830642Y-33830428D01*
X73830642Y-33949476D01*
X73854452Y-33997095D01*
X73878261Y-34020904D01*
X73925880Y-34044714D01*
X74021119Y-34044714D01*
X74068738Y-34020904D01*
X74092547Y-33997095D01*
X74116357Y-33949476D01*
X73390166Y-36575190D02*
X73104452Y-36575190D01*
X73247309Y-36575190D02*
X73247309Y-36075190D01*
X73199690Y-36146619D01*
X73152071Y-36194238D01*
X73104452Y-36218047D01*
X73699690Y-36075190D02*
X73747309Y-36075190D01*
X73794928Y-36099000D01*
X73818738Y-36122809D01*
X73842547Y-36170428D01*
X73866357Y-36265666D01*
X73866357Y-36384714D01*
X73842547Y-36479952D01*
X73818738Y-36527571D01*
X73794928Y-36551380D01*
X73747309Y-36575190D01*
X73699690Y-36575190D01*
X73652071Y-36551380D01*
X73628261Y-36527571D01*
X73604452Y-36479952D01*
X73580642Y-36384714D01*
X73580642Y-36265666D01*
X73604452Y-36170428D01*
X73628261Y-36122809D01*
X73652071Y-36099000D01*
X73699690Y-36075190D01*
X74175880Y-36075190D02*
X74223500Y-36075190D01*
X74271119Y-36099000D01*
X74294928Y-36122809D01*
X74318738Y-36170428D01*
X74342547Y-36265666D01*
X74342547Y-36384714D01*
X74318738Y-36479952D01*
X74294928Y-36527571D01*
X74271119Y-36551380D01*
X74223500Y-36575190D01*
X74175880Y-36575190D01*
X74128261Y-36551380D01*
X74104452Y-36527571D01*
X74080642Y-36479952D01*
X74056833Y-36384714D01*
X74056833Y-36265666D01*
X74080642Y-36170428D01*
X74104452Y-36122809D01*
X74128261Y-36099000D01*
X74175880Y-36075190D01*
X73640166Y-35405190D02*
X73473500Y-35167095D01*
X73354452Y-35405190D02*
X73354452Y-34905190D01*
X73544928Y-34905190D01*
X73592547Y-34929000D01*
X73616357Y-34952809D01*
X73640166Y-35000428D01*
X73640166Y-35071857D01*
X73616357Y-35119476D01*
X73592547Y-35143285D01*
X73544928Y-35167095D01*
X73354452Y-35167095D01*
X73878261Y-35405190D02*
X73973500Y-35405190D01*
X74021119Y-35381380D01*
X74044928Y-35357571D01*
X74092547Y-35286142D01*
X74116357Y-35190904D01*
X74116357Y-35000428D01*
X74092547Y-34952809D01*
X74068738Y-34929000D01*
X74021119Y-34905190D01*
X73925880Y-34905190D01*
X73878261Y-34929000D01*
X73854452Y-34952809D01*
X73830642Y-35000428D01*
X73830642Y-35119476D01*
X73854452Y-35167095D01*
X73878261Y-35190904D01*
X73925880Y-35214714D01*
X74021119Y-35214714D01*
X74068738Y-35190904D01*
X74092547Y-35167095D01*
X74116357Y-35119476D01*
G04 #@! TO.C,R10*
X74802190Y-38357928D02*
X74564095Y-38524595D01*
X74802190Y-38643642D02*
X74302190Y-38643642D01*
X74302190Y-38453166D01*
X74326000Y-38405547D01*
X74349809Y-38381738D01*
X74397428Y-38357928D01*
X74468857Y-38357928D01*
X74516476Y-38381738D01*
X74540285Y-38405547D01*
X74564095Y-38453166D01*
X74564095Y-38643642D01*
X74802190Y-37881738D02*
X74802190Y-38167452D01*
X74802190Y-38024595D02*
X74302190Y-38024595D01*
X74373619Y-38072214D01*
X74421238Y-38119833D01*
X74445047Y-38167452D01*
X74302190Y-37572214D02*
X74302190Y-37524595D01*
X74326000Y-37476976D01*
X74349809Y-37453166D01*
X74397428Y-37429357D01*
X74492666Y-37405547D01*
X74611714Y-37405547D01*
X74706952Y-37429357D01*
X74754571Y-37453166D01*
X74778380Y-37476976D01*
X74802190Y-37524595D01*
X74802190Y-37572214D01*
X74778380Y-37619833D01*
X74754571Y-37643642D01*
X74706952Y-37667452D01*
X74611714Y-37691261D01*
X74492666Y-37691261D01*
X74397428Y-37667452D01*
X74349809Y-37643642D01*
X74326000Y-37619833D01*
X74302190Y-37572214D01*
X72462190Y-38369833D02*
X72462190Y-38655547D01*
X72462190Y-38512690D02*
X71962190Y-38512690D01*
X72033619Y-38560309D01*
X72081238Y-38607928D01*
X72105047Y-38655547D01*
X71962190Y-38060309D02*
X71962190Y-38012690D01*
X71986000Y-37965071D01*
X72009809Y-37941261D01*
X72057428Y-37917452D01*
X72152666Y-37893642D01*
X72271714Y-37893642D01*
X72366952Y-37917452D01*
X72414571Y-37941261D01*
X72438380Y-37965071D01*
X72462190Y-38012690D01*
X72462190Y-38060309D01*
X72438380Y-38107928D01*
X72414571Y-38131738D01*
X72366952Y-38155547D01*
X72271714Y-38179357D01*
X72152666Y-38179357D01*
X72057428Y-38155547D01*
X72009809Y-38131738D01*
X71986000Y-38107928D01*
X71962190Y-38060309D01*
X71962190Y-37584119D02*
X71962190Y-37536500D01*
X71986000Y-37488880D01*
X72009809Y-37465071D01*
X72057428Y-37441261D01*
X72152666Y-37417452D01*
X72271714Y-37417452D01*
X72366952Y-37441261D01*
X72414571Y-37465071D01*
X72438380Y-37488880D01*
X72462190Y-37536500D01*
X72462190Y-37584119D01*
X72438380Y-37631738D01*
X72414571Y-37655547D01*
X72366952Y-37679357D01*
X72271714Y-37703166D01*
X72152666Y-37703166D01*
X72057428Y-37679357D01*
X72009809Y-37655547D01*
X71986000Y-37631738D01*
X71962190Y-37584119D01*
X73632190Y-38357928D02*
X73394095Y-38524595D01*
X73632190Y-38643642D02*
X73132190Y-38643642D01*
X73132190Y-38453166D01*
X73156000Y-38405547D01*
X73179809Y-38381738D01*
X73227428Y-38357928D01*
X73298857Y-38357928D01*
X73346476Y-38381738D01*
X73370285Y-38405547D01*
X73394095Y-38453166D01*
X73394095Y-38643642D01*
X73632190Y-37881738D02*
X73632190Y-38167452D01*
X73632190Y-38024595D02*
X73132190Y-38024595D01*
X73203619Y-38072214D01*
X73251238Y-38119833D01*
X73275047Y-38167452D01*
X73132190Y-37572214D02*
X73132190Y-37524595D01*
X73156000Y-37476976D01*
X73179809Y-37453166D01*
X73227428Y-37429357D01*
X73322666Y-37405547D01*
X73441714Y-37405547D01*
X73536952Y-37429357D01*
X73584571Y-37453166D01*
X73608380Y-37476976D01*
X73632190Y-37524595D01*
X73632190Y-37572214D01*
X73608380Y-37619833D01*
X73584571Y-37643642D01*
X73536952Y-37667452D01*
X73441714Y-37691261D01*
X73322666Y-37691261D01*
X73227428Y-37667452D01*
X73179809Y-37643642D01*
X73156000Y-37619833D01*
X73132190Y-37572214D01*
G04 #@! TO.C,R11*
X62670571Y-27567690D02*
X62503904Y-27329595D01*
X62384857Y-27567690D02*
X62384857Y-27067690D01*
X62575333Y-27067690D01*
X62622952Y-27091500D01*
X62646761Y-27115309D01*
X62670571Y-27162928D01*
X62670571Y-27234357D01*
X62646761Y-27281976D01*
X62622952Y-27305785D01*
X62575333Y-27329595D01*
X62384857Y-27329595D01*
X63146761Y-27567690D02*
X62861047Y-27567690D01*
X63003904Y-27567690D02*
X63003904Y-27067690D01*
X62956285Y-27139119D01*
X62908666Y-27186738D01*
X62861047Y-27210547D01*
X63622952Y-27567690D02*
X63337238Y-27567690D01*
X63480095Y-27567690D02*
X63480095Y-27067690D01*
X63432476Y-27139119D01*
X63384857Y-27186738D01*
X63337238Y-27210547D01*
X62932476Y-29907690D02*
X62646761Y-29907690D01*
X62789619Y-29907690D02*
X62789619Y-29407690D01*
X62742000Y-29479119D01*
X62694380Y-29526738D01*
X62646761Y-29550547D01*
X63146761Y-29907690D02*
X63146761Y-29407690D01*
X63194380Y-29717214D02*
X63337238Y-29907690D01*
X63337238Y-29574357D02*
X63146761Y-29764833D01*
X62670571Y-28737690D02*
X62503904Y-28499595D01*
X62384857Y-28737690D02*
X62384857Y-28237690D01*
X62575333Y-28237690D01*
X62622952Y-28261500D01*
X62646761Y-28285309D01*
X62670571Y-28332928D01*
X62670571Y-28404357D01*
X62646761Y-28451976D01*
X62622952Y-28475785D01*
X62575333Y-28499595D01*
X62384857Y-28499595D01*
X63146761Y-28737690D02*
X62861047Y-28737690D01*
X63003904Y-28737690D02*
X63003904Y-28237690D01*
X62956285Y-28309119D01*
X62908666Y-28356738D01*
X62861047Y-28380547D01*
X63622952Y-28737690D02*
X63337238Y-28737690D01*
X63480095Y-28737690D02*
X63480095Y-28237690D01*
X63432476Y-28309119D01*
X63384857Y-28356738D01*
X63337238Y-28380547D01*
G04 #@! TO.C,U1*
X51796190Y-30225952D02*
X52200952Y-30225952D01*
X52248571Y-30202142D01*
X52272380Y-30178333D01*
X52296190Y-30130714D01*
X52296190Y-30035476D01*
X52272380Y-29987857D01*
X52248571Y-29964047D01*
X52200952Y-29940238D01*
X51796190Y-29940238D01*
X52296190Y-29440238D02*
X52296190Y-29725952D01*
X52296190Y-29583095D02*
X51796190Y-29583095D01*
X51867619Y-29630714D01*
X51915238Y-29678333D01*
X51939047Y-29725952D01*
D15*
X50913095Y-31108809D02*
X50913095Y-31227857D01*
X50663095Y-31227857D01*
X50913095Y-31025476D02*
X50663095Y-31025476D01*
X50663095Y-30965952D01*
X50675000Y-30930238D01*
X50698809Y-30906428D01*
X50722619Y-30894523D01*
X50770238Y-30882619D01*
X50805952Y-30882619D01*
X50853571Y-30894523D01*
X50877380Y-30906428D01*
X50901190Y-30930238D01*
X50913095Y-30965952D01*
X50913095Y-31025476D01*
X50913095Y-30644523D02*
X50913095Y-30787380D01*
X50913095Y-30715952D02*
X50663095Y-30715952D01*
X50698809Y-30739761D01*
X50722619Y-30763571D01*
X50734523Y-30787380D01*
X50913095Y-30406428D02*
X50913095Y-30549285D01*
X50913095Y-30477857D02*
X50663095Y-30477857D01*
X50698809Y-30501666D01*
X50722619Y-30525476D01*
X50734523Y-30549285D01*
X50913095Y-30168333D02*
X50913095Y-30311190D01*
X50913095Y-30239761D02*
X50663095Y-30239761D01*
X50698809Y-30263571D01*
X50722619Y-30287380D01*
X50734523Y-30311190D01*
X50663095Y-30085000D02*
X50663095Y-29918333D01*
X50913095Y-30025476D01*
X50901190Y-29835000D02*
X50913095Y-29799285D01*
X50913095Y-29739761D01*
X50901190Y-29715952D01*
X50889285Y-29704047D01*
X50865476Y-29692142D01*
X50841666Y-29692142D01*
X50817857Y-29704047D01*
X50805952Y-29715952D01*
X50794047Y-29739761D01*
X50782142Y-29787380D01*
X50770238Y-29811190D01*
X50758333Y-29823095D01*
X50734523Y-29835000D01*
X50710714Y-29835000D01*
X50686904Y-29823095D01*
X50675000Y-29811190D01*
X50663095Y-29787380D01*
X50663095Y-29727857D01*
X50675000Y-29692142D01*
X50663095Y-29608809D02*
X50663095Y-29454047D01*
X50758333Y-29537380D01*
X50758333Y-29501666D01*
X50770238Y-29477857D01*
X50782142Y-29465952D01*
X50805952Y-29454047D01*
X50865476Y-29454047D01*
X50889285Y-29465952D01*
X50901190Y-29477857D01*
X50913095Y-29501666D01*
X50913095Y-29573095D01*
X50901190Y-29596904D01*
X50889285Y-29608809D01*
X50663095Y-29370714D02*
X50663095Y-29215952D01*
X50758333Y-29299285D01*
X50758333Y-29263571D01*
X50770238Y-29239761D01*
X50782142Y-29227857D01*
X50805952Y-29215952D01*
X50865476Y-29215952D01*
X50889285Y-29227857D01*
X50901190Y-29239761D01*
X50913095Y-29263571D01*
X50913095Y-29335000D01*
X50901190Y-29358809D01*
X50889285Y-29370714D01*
X50663095Y-29144523D02*
X50663095Y-29001666D01*
X50913095Y-29073095D02*
X50663095Y-29073095D01*
X50913095Y-28775476D02*
X50794047Y-28858809D01*
X50913095Y-28918333D02*
X50663095Y-28918333D01*
X50663095Y-28823095D01*
X50675000Y-28799285D01*
X50686904Y-28787380D01*
X50710714Y-28775476D01*
X50746428Y-28775476D01*
X50770238Y-28787380D01*
X50782142Y-28799285D01*
X50794047Y-28823095D01*
X50794047Y-28918333D01*
X50936904Y-28727857D02*
X50936904Y-28537380D01*
X50901190Y-28489761D02*
X50913095Y-28454047D01*
X50913095Y-28394523D01*
X50901190Y-28370714D01*
X50889285Y-28358809D01*
X50865476Y-28346904D01*
X50841666Y-28346904D01*
X50817857Y-28358809D01*
X50805952Y-28370714D01*
X50794047Y-28394523D01*
X50782142Y-28442142D01*
X50770238Y-28465952D01*
X50758333Y-28477857D01*
X50734523Y-28489761D01*
X50710714Y-28489761D01*
X50686904Y-28477857D01*
X50675000Y-28465952D01*
X50663095Y-28442142D01*
X50663095Y-28382619D01*
X50675000Y-28346904D01*
X50663095Y-28192142D02*
X50663095Y-28144523D01*
X50675000Y-28120714D01*
X50698809Y-28096904D01*
X50746428Y-28085000D01*
X50829761Y-28085000D01*
X50877380Y-28096904D01*
X50901190Y-28120714D01*
X50913095Y-28144523D01*
X50913095Y-28192142D01*
X50901190Y-28215952D01*
X50877380Y-28239761D01*
X50829761Y-28251666D01*
X50746428Y-28251666D01*
X50698809Y-28239761D01*
X50675000Y-28215952D01*
X50663095Y-28192142D01*
X50663095Y-28013571D02*
X50663095Y-27870714D01*
X50913095Y-27942142D02*
X50663095Y-27942142D01*
X50686904Y-27799285D02*
X50675000Y-27787380D01*
X50663095Y-27763571D01*
X50663095Y-27704047D01*
X50675000Y-27680238D01*
X50686904Y-27668333D01*
X50710714Y-27656428D01*
X50734523Y-27656428D01*
X50770238Y-27668333D01*
X50913095Y-27811190D01*
X50913095Y-27656428D01*
X50686904Y-27561190D02*
X50675000Y-27549285D01*
X50663095Y-27525476D01*
X50663095Y-27465952D01*
X50675000Y-27442142D01*
X50686904Y-27430238D01*
X50710714Y-27418333D01*
X50734523Y-27418333D01*
X50770238Y-27430238D01*
X50913095Y-27573095D01*
X50913095Y-27418333D01*
X50663095Y-27335000D02*
X50663095Y-27180238D01*
X50758333Y-27263571D01*
X50758333Y-27227857D01*
X50770238Y-27204047D01*
X50782142Y-27192142D01*
X50805952Y-27180238D01*
X50865476Y-27180238D01*
X50889285Y-27192142D01*
X50901190Y-27204047D01*
X50913095Y-27227857D01*
X50913095Y-27299285D01*
X50901190Y-27323095D01*
X50889285Y-27335000D01*
D14*
X54229047Y-29952190D02*
X54229047Y-30356952D01*
X54252857Y-30404571D01*
X54276666Y-30428380D01*
X54324285Y-30452190D01*
X54419523Y-30452190D01*
X54467142Y-30428380D01*
X54490952Y-30404571D01*
X54514761Y-30356952D01*
X54514761Y-29952190D01*
X55014761Y-30452190D02*
X54729047Y-30452190D01*
X54871904Y-30452190D02*
X54871904Y-29952190D01*
X54824285Y-30023619D01*
X54776666Y-30071238D01*
X54729047Y-30095047D01*
G04 #@! TO.C,U2*
X66992547Y-29690190D02*
X66992547Y-30094952D01*
X67016357Y-30142571D01*
X67040166Y-30166380D01*
X67087785Y-30190190D01*
X67183023Y-30190190D01*
X67230642Y-30166380D01*
X67254452Y-30142571D01*
X67278261Y-30094952D01*
X67278261Y-29690190D01*
X67492547Y-29737809D02*
X67516357Y-29714000D01*
X67563976Y-29690190D01*
X67683023Y-29690190D01*
X67730642Y-29714000D01*
X67754452Y-29737809D01*
X67778261Y-29785428D01*
X67778261Y-29833047D01*
X67754452Y-29904476D01*
X67468738Y-30190190D01*
X67778261Y-30190190D01*
X64456833Y-41866380D02*
X64528261Y-41890190D01*
X64647309Y-41890190D01*
X64694928Y-41866380D01*
X64718738Y-41842571D01*
X64742547Y-41794952D01*
X64742547Y-41747333D01*
X64718738Y-41699714D01*
X64694928Y-41675904D01*
X64647309Y-41652095D01*
X64552071Y-41628285D01*
X64504452Y-41604476D01*
X64480642Y-41580666D01*
X64456833Y-41533047D01*
X64456833Y-41485428D01*
X64480642Y-41437809D01*
X64504452Y-41414000D01*
X64552071Y-41390190D01*
X64671119Y-41390190D01*
X64742547Y-41414000D01*
X64885404Y-41390190D02*
X65171119Y-41390190D01*
X65028261Y-41890190D02*
X65028261Y-41390190D01*
X65337785Y-41890190D02*
X65337785Y-41390190D01*
X65504452Y-41747333D01*
X65671119Y-41390190D01*
X65671119Y-41890190D01*
X65861595Y-41390190D02*
X66171119Y-41390190D01*
X66004452Y-41580666D01*
X66075880Y-41580666D01*
X66123500Y-41604476D01*
X66147309Y-41628285D01*
X66171119Y-41675904D01*
X66171119Y-41794952D01*
X66147309Y-41842571D01*
X66123500Y-41866380D01*
X66075880Y-41890190D01*
X65933023Y-41890190D01*
X65885404Y-41866380D01*
X65861595Y-41842571D01*
X66361595Y-41437809D02*
X66385404Y-41414000D01*
X66433023Y-41390190D01*
X66552071Y-41390190D01*
X66599690Y-41414000D01*
X66623500Y-41437809D01*
X66647309Y-41485428D01*
X66647309Y-41533047D01*
X66623500Y-41604476D01*
X66337785Y-41890190D01*
X66647309Y-41890190D01*
X67028261Y-41628285D02*
X66861595Y-41628285D01*
X66861595Y-41890190D02*
X66861595Y-41390190D01*
X67099690Y-41390190D01*
X67552071Y-41890190D02*
X67266357Y-41890190D01*
X67409214Y-41890190D02*
X67409214Y-41390190D01*
X67361595Y-41461619D01*
X67313976Y-41509238D01*
X67266357Y-41533047D01*
X67861595Y-41390190D02*
X67909214Y-41390190D01*
X67956833Y-41414000D01*
X67980642Y-41437809D01*
X68004452Y-41485428D01*
X68028261Y-41580666D01*
X68028261Y-41699714D01*
X68004452Y-41794952D01*
X67980642Y-41842571D01*
X67956833Y-41866380D01*
X67909214Y-41890190D01*
X67861595Y-41890190D01*
X67813976Y-41866380D01*
X67790166Y-41842571D01*
X67766357Y-41794952D01*
X67742547Y-41699714D01*
X67742547Y-41580666D01*
X67766357Y-41485428D01*
X67790166Y-41437809D01*
X67813976Y-41414000D01*
X67861595Y-41390190D01*
X68194928Y-41390190D02*
X68504452Y-41390190D01*
X68337785Y-41580666D01*
X68409214Y-41580666D01*
X68456833Y-41604476D01*
X68480642Y-41628285D01*
X68504452Y-41675904D01*
X68504452Y-41794952D01*
X68480642Y-41842571D01*
X68456833Y-41866380D01*
X68409214Y-41890190D01*
X68266357Y-41890190D01*
X68218738Y-41866380D01*
X68194928Y-41842571D01*
X69004452Y-41842571D02*
X68980642Y-41866380D01*
X68909214Y-41890190D01*
X68861595Y-41890190D01*
X68790166Y-41866380D01*
X68742547Y-41818761D01*
X68718738Y-41771142D01*
X68694928Y-41675904D01*
X68694928Y-41604476D01*
X68718738Y-41509238D01*
X68742547Y-41461619D01*
X68790166Y-41414000D01*
X68861595Y-41390190D01*
X68909214Y-41390190D01*
X68980642Y-41414000D01*
X69004452Y-41437809D01*
X69385404Y-41628285D02*
X69456833Y-41652095D01*
X69480642Y-41675904D01*
X69504452Y-41723523D01*
X69504452Y-41794952D01*
X69480642Y-41842571D01*
X69456833Y-41866380D01*
X69409214Y-41890190D01*
X69218738Y-41890190D01*
X69218738Y-41390190D01*
X69385404Y-41390190D01*
X69433023Y-41414000D01*
X69456833Y-41437809D01*
X69480642Y-41485428D01*
X69480642Y-41533047D01*
X69456833Y-41580666D01*
X69433023Y-41604476D01*
X69385404Y-41628285D01*
X69218738Y-41628285D01*
X69647309Y-41390190D02*
X69933023Y-41390190D01*
X69790166Y-41890190D02*
X69790166Y-41390190D01*
X70052071Y-41890190D02*
X70313976Y-41556857D01*
X70052071Y-41556857D02*
X70313976Y-41890190D01*
X66992547Y-35540190D02*
X66992547Y-35944952D01*
X67016357Y-35992571D01*
X67040166Y-36016380D01*
X67087785Y-36040190D01*
X67183023Y-36040190D01*
X67230642Y-36016380D01*
X67254452Y-35992571D01*
X67278261Y-35944952D01*
X67278261Y-35540190D01*
X67492547Y-35587809D02*
X67516357Y-35564000D01*
X67563976Y-35540190D01*
X67683023Y-35540190D01*
X67730642Y-35564000D01*
X67754452Y-35587809D01*
X67778261Y-35635428D01*
X67778261Y-35683047D01*
X67754452Y-35754476D01*
X67468738Y-36040190D01*
X67778261Y-36040190D01*
G04 #@! TO.C,U3*
X55458190Y-38480952D02*
X55862952Y-38480952D01*
X55910571Y-38457142D01*
X55934380Y-38433333D01*
X55958190Y-38385714D01*
X55958190Y-38290476D01*
X55934380Y-38242857D01*
X55910571Y-38219047D01*
X55862952Y-38195238D01*
X55458190Y-38195238D01*
X55458190Y-38004761D02*
X55458190Y-37695238D01*
X55648666Y-37861904D01*
X55648666Y-37790476D01*
X55672476Y-37742857D01*
X55696285Y-37719047D01*
X55743904Y-37695238D01*
X55862952Y-37695238D01*
X55910571Y-37719047D01*
X55934380Y-37742857D01*
X55958190Y-37790476D01*
X55958190Y-37933333D01*
X55934380Y-37980952D01*
X55910571Y-38004761D01*
X50526190Y-41203238D02*
X50930952Y-41203238D01*
X50978571Y-41179428D01*
X51002380Y-41155619D01*
X51026190Y-41108000D01*
X51026190Y-41012761D01*
X51002380Y-40965142D01*
X50978571Y-40941333D01*
X50930952Y-40917523D01*
X50526190Y-40917523D01*
X51002380Y-40703238D02*
X51026190Y-40631809D01*
X51026190Y-40512761D01*
X51002380Y-40465142D01*
X50978571Y-40441333D01*
X50930952Y-40417523D01*
X50883333Y-40417523D01*
X50835714Y-40441333D01*
X50811904Y-40465142D01*
X50788095Y-40512761D01*
X50764285Y-40608000D01*
X50740476Y-40655619D01*
X50716666Y-40679428D01*
X50669047Y-40703238D01*
X50621428Y-40703238D01*
X50573809Y-40679428D01*
X50550000Y-40655619D01*
X50526190Y-40608000D01*
X50526190Y-40488952D01*
X50550000Y-40417523D01*
X50764285Y-40036571D02*
X50788095Y-39965142D01*
X50811904Y-39941333D01*
X50859523Y-39917523D01*
X50930952Y-39917523D01*
X50978571Y-39941333D01*
X51002380Y-39965142D01*
X51026190Y-40012761D01*
X51026190Y-40203238D01*
X50526190Y-40203238D01*
X50526190Y-40036571D01*
X50550000Y-39988952D01*
X50573809Y-39965142D01*
X50621428Y-39941333D01*
X50669047Y-39941333D01*
X50716666Y-39965142D01*
X50740476Y-39988952D01*
X50764285Y-40036571D01*
X50764285Y-40203238D01*
X51026190Y-39465142D02*
X51026190Y-39703238D01*
X50526190Y-39703238D01*
X50978571Y-39012761D02*
X51002380Y-39036571D01*
X51026190Y-39108000D01*
X51026190Y-39155619D01*
X51002380Y-39227047D01*
X50954761Y-39274666D01*
X50907142Y-39298476D01*
X50811904Y-39322285D01*
X50740476Y-39322285D01*
X50645238Y-39298476D01*
X50597619Y-39274666D01*
X50550000Y-39227047D01*
X50526190Y-39155619D01*
X50526190Y-39108000D01*
X50550000Y-39036571D01*
X50573809Y-39012761D01*
X50526190Y-38584190D02*
X50526190Y-38679428D01*
X50550000Y-38727047D01*
X50573809Y-38750857D01*
X50645238Y-38798476D01*
X50740476Y-38822285D01*
X50930952Y-38822285D01*
X50978571Y-38798476D01*
X51002380Y-38774666D01*
X51026190Y-38727047D01*
X51026190Y-38631809D01*
X51002380Y-38584190D01*
X50978571Y-38560380D01*
X50930952Y-38536571D01*
X50811904Y-38536571D01*
X50764285Y-38560380D01*
X50740476Y-38584190D01*
X50716666Y-38631809D01*
X50716666Y-38727047D01*
X50740476Y-38774666D01*
X50764285Y-38798476D01*
X50811904Y-38822285D01*
X50835714Y-38322285D02*
X50835714Y-37941333D01*
X50573809Y-37727047D02*
X50550000Y-37703238D01*
X50526190Y-37655619D01*
X50526190Y-37536571D01*
X50550000Y-37488952D01*
X50573809Y-37465142D01*
X50621428Y-37441333D01*
X50669047Y-37441333D01*
X50740476Y-37465142D01*
X51026190Y-37750857D01*
X51026190Y-37441333D01*
X51002380Y-37250857D02*
X51026190Y-37179428D01*
X51026190Y-37060380D01*
X51002380Y-37012761D01*
X50978571Y-36988952D01*
X50930952Y-36965142D01*
X50883333Y-36965142D01*
X50835714Y-36988952D01*
X50811904Y-37012761D01*
X50788095Y-37060380D01*
X50764285Y-37155619D01*
X50740476Y-37203238D01*
X50716666Y-37227047D01*
X50669047Y-37250857D01*
X50621428Y-37250857D01*
X50573809Y-37227047D01*
X50550000Y-37203238D01*
X50526190Y-37155619D01*
X50526190Y-37036571D01*
X50550000Y-36965142D01*
X50978571Y-36465142D02*
X51002380Y-36488952D01*
X51026190Y-36560380D01*
X51026190Y-36608000D01*
X51002380Y-36679428D01*
X50954761Y-36727047D01*
X50907142Y-36750857D01*
X50811904Y-36774666D01*
X50740476Y-36774666D01*
X50645238Y-36750857D01*
X50597619Y-36727047D01*
X50550000Y-36679428D01*
X50526190Y-36608000D01*
X50526190Y-36560380D01*
X50550000Y-36488952D01*
X50573809Y-36465142D01*
X50526190Y-36036571D02*
X50526190Y-36131809D01*
X50550000Y-36179428D01*
X50573809Y-36203238D01*
X50645238Y-36250857D01*
X50740476Y-36274666D01*
X50930952Y-36274666D01*
X50978571Y-36250857D01*
X51002380Y-36227047D01*
X51026190Y-36179428D01*
X51026190Y-36084190D01*
X51002380Y-36036571D01*
X50978571Y-36012761D01*
X50930952Y-35988952D01*
X50811904Y-35988952D01*
X50764285Y-36012761D01*
X50740476Y-36036571D01*
X50716666Y-36084190D01*
X50716666Y-36179428D01*
X50740476Y-36227047D01*
X50764285Y-36250857D01*
X50811904Y-36274666D01*
X52451047Y-37826190D02*
X52451047Y-38230952D01*
X52474857Y-38278571D01*
X52498666Y-38302380D01*
X52546285Y-38326190D01*
X52641523Y-38326190D01*
X52689142Y-38302380D01*
X52712952Y-38278571D01*
X52736761Y-38230952D01*
X52736761Y-37826190D01*
X52927238Y-37826190D02*
X53236761Y-37826190D01*
X53070095Y-38016666D01*
X53141523Y-38016666D01*
X53189142Y-38040476D01*
X53212952Y-38064285D01*
X53236761Y-38111904D01*
X53236761Y-38230952D01*
X53212952Y-38278571D01*
X53189142Y-38302380D01*
X53141523Y-38326190D01*
X52998666Y-38326190D01*
X52951047Y-38302380D01*
X52927238Y-38278571D01*
G04 #@! TO.C,Y1*
X74225595Y-35925095D02*
X74463690Y-35925095D01*
X73963690Y-36091761D02*
X74225595Y-35925095D01*
X73963690Y-35758428D01*
X74463690Y-35329857D02*
X74463690Y-35615571D01*
X74463690Y-35472714D02*
X73963690Y-35472714D01*
X74035119Y-35520333D01*
X74082738Y-35567952D01*
X74106547Y-35615571D01*
X81277976Y-36484619D02*
X81254166Y-36532238D01*
X81230357Y-36556047D01*
X81182738Y-36579857D01*
X81158928Y-36579857D01*
X81111309Y-36556047D01*
X81087500Y-36532238D01*
X81063690Y-36484619D01*
X81063690Y-36389380D01*
X81087500Y-36341761D01*
X81111309Y-36317952D01*
X81158928Y-36294142D01*
X81182738Y-36294142D01*
X81230357Y-36317952D01*
X81254166Y-36341761D01*
X81277976Y-36389380D01*
X81277976Y-36484619D01*
X81301785Y-36532238D01*
X81325595Y-36556047D01*
X81373214Y-36579857D01*
X81468452Y-36579857D01*
X81516071Y-36556047D01*
X81539880Y-36532238D01*
X81563690Y-36484619D01*
X81563690Y-36389380D01*
X81539880Y-36341761D01*
X81516071Y-36317952D01*
X81468452Y-36294142D01*
X81373214Y-36294142D01*
X81325595Y-36317952D01*
X81301785Y-36341761D01*
X81277976Y-36389380D01*
X81563690Y-36079857D02*
X81063690Y-36079857D01*
X81420833Y-35913190D01*
X81063690Y-35746523D01*
X81563690Y-35746523D01*
X81563690Y-35508428D02*
X81063690Y-35508428D01*
X81301785Y-35508428D02*
X81301785Y-35222714D01*
X81563690Y-35222714D02*
X81063690Y-35222714D01*
X81230357Y-35032238D02*
X81230357Y-34770333D01*
X81563690Y-35032238D01*
X81563690Y-34770333D01*
X77775595Y-35925095D02*
X78013690Y-35925095D01*
X77513690Y-36091761D02*
X77775595Y-35925095D01*
X77513690Y-35758428D01*
X78013690Y-35329857D02*
X78013690Y-35615571D01*
X78013690Y-35472714D02*
X77513690Y-35472714D01*
X77585119Y-35520333D01*
X77632738Y-35567952D01*
X77656547Y-35615571D01*
G04 #@! TO.C,C1*
X73494071Y-41612333D02*
X73517880Y-41636142D01*
X73541690Y-41707571D01*
X73541690Y-41755190D01*
X73517880Y-41826619D01*
X73470261Y-41874238D01*
X73422642Y-41898047D01*
X73327404Y-41921857D01*
X73255976Y-41921857D01*
X73160738Y-41898047D01*
X73113119Y-41874238D01*
X73065500Y-41826619D01*
X73041690Y-41755190D01*
X73041690Y-41707571D01*
X73065500Y-41636142D01*
X73089309Y-41612333D01*
X73541690Y-41136142D02*
X73541690Y-41421857D01*
X73541690Y-41279000D02*
X73041690Y-41279000D01*
X73113119Y-41326619D01*
X73160738Y-41374238D01*
X73184547Y-41421857D01*
X75429309Y-42350428D02*
X75405500Y-42326619D01*
X75381690Y-42279000D01*
X75381690Y-42159952D01*
X75405500Y-42112333D01*
X75429309Y-42088523D01*
X75476928Y-42064714D01*
X75524547Y-42064714D01*
X75595976Y-42088523D01*
X75881690Y-42374238D01*
X75881690Y-42064714D01*
X75381690Y-41755190D02*
X75381690Y-41707571D01*
X75405500Y-41659952D01*
X75429309Y-41636142D01*
X75476928Y-41612333D01*
X75572166Y-41588523D01*
X75691214Y-41588523D01*
X75786452Y-41612333D01*
X75834071Y-41636142D01*
X75857880Y-41659952D01*
X75881690Y-41707571D01*
X75881690Y-41755190D01*
X75857880Y-41802809D01*
X75834071Y-41826619D01*
X75786452Y-41850428D01*
X75691214Y-41874238D01*
X75572166Y-41874238D01*
X75476928Y-41850428D01*
X75429309Y-41826619D01*
X75405500Y-41802809D01*
X75381690Y-41755190D01*
X75548357Y-41374238D02*
X76048357Y-41374238D01*
X75572166Y-41374238D02*
X75548357Y-41326619D01*
X75548357Y-41231380D01*
X75572166Y-41183761D01*
X75595976Y-41159952D01*
X75643595Y-41136142D01*
X75786452Y-41136142D01*
X75834071Y-41159952D01*
X75857880Y-41183761D01*
X75881690Y-41231380D01*
X75881690Y-41326619D01*
X75857880Y-41374238D01*
X75619785Y-40755190D02*
X75619785Y-40921857D01*
X75881690Y-40921857D02*
X75381690Y-40921857D01*
X75381690Y-40683761D01*
X74664071Y-41612333D02*
X74687880Y-41636142D01*
X74711690Y-41707571D01*
X74711690Y-41755190D01*
X74687880Y-41826619D01*
X74640261Y-41874238D01*
X74592642Y-41898047D01*
X74497404Y-41921857D01*
X74425976Y-41921857D01*
X74330738Y-41898047D01*
X74283119Y-41874238D01*
X74235500Y-41826619D01*
X74211690Y-41755190D01*
X74211690Y-41707571D01*
X74235500Y-41636142D01*
X74259309Y-41612333D01*
X74711690Y-41136142D02*
X74711690Y-41421857D01*
X74711690Y-41279000D02*
X74211690Y-41279000D01*
X74283119Y-41326619D01*
X74330738Y-41374238D01*
X74354547Y-41421857D01*
G04 #@! TO.C,C2*
X75834071Y-29887833D02*
X75857880Y-29911642D01*
X75881690Y-29983071D01*
X75881690Y-30030690D01*
X75857880Y-30102119D01*
X75810261Y-30149738D01*
X75762642Y-30173547D01*
X75667404Y-30197357D01*
X75595976Y-30197357D01*
X75500738Y-30173547D01*
X75453119Y-30149738D01*
X75405500Y-30102119D01*
X75381690Y-30030690D01*
X75381690Y-29983071D01*
X75405500Y-29911642D01*
X75429309Y-29887833D01*
X75429309Y-29697357D02*
X75405500Y-29673547D01*
X75381690Y-29625928D01*
X75381690Y-29506880D01*
X75405500Y-29459261D01*
X75429309Y-29435452D01*
X75476928Y-29411642D01*
X75524547Y-29411642D01*
X75595976Y-29435452D01*
X75881690Y-29721166D01*
X75881690Y-29411642D01*
X73089309Y-30625928D02*
X73065500Y-30602119D01*
X73041690Y-30554500D01*
X73041690Y-30435452D01*
X73065500Y-30387833D01*
X73089309Y-30364023D01*
X73136928Y-30340214D01*
X73184547Y-30340214D01*
X73255976Y-30364023D01*
X73541690Y-30649738D01*
X73541690Y-30340214D01*
X73041690Y-30030690D02*
X73041690Y-29983071D01*
X73065500Y-29935452D01*
X73089309Y-29911642D01*
X73136928Y-29887833D01*
X73232166Y-29864023D01*
X73351214Y-29864023D01*
X73446452Y-29887833D01*
X73494071Y-29911642D01*
X73517880Y-29935452D01*
X73541690Y-29983071D01*
X73541690Y-30030690D01*
X73517880Y-30078309D01*
X73494071Y-30102119D01*
X73446452Y-30125928D01*
X73351214Y-30149738D01*
X73232166Y-30149738D01*
X73136928Y-30125928D01*
X73089309Y-30102119D01*
X73065500Y-30078309D01*
X73041690Y-30030690D01*
X73208357Y-29649738D02*
X73708357Y-29649738D01*
X73232166Y-29649738D02*
X73208357Y-29602119D01*
X73208357Y-29506880D01*
X73232166Y-29459261D01*
X73255976Y-29435452D01*
X73303595Y-29411642D01*
X73446452Y-29411642D01*
X73494071Y-29435452D01*
X73517880Y-29459261D01*
X73541690Y-29506880D01*
X73541690Y-29602119D01*
X73517880Y-29649738D01*
X73279785Y-29030690D02*
X73279785Y-29197357D01*
X73541690Y-29197357D02*
X73041690Y-29197357D01*
X73041690Y-28959261D01*
X74664071Y-29887833D02*
X74687880Y-29911642D01*
X74711690Y-29983071D01*
X74711690Y-30030690D01*
X74687880Y-30102119D01*
X74640261Y-30149738D01*
X74592642Y-30173547D01*
X74497404Y-30197357D01*
X74425976Y-30197357D01*
X74330738Y-30173547D01*
X74283119Y-30149738D01*
X74235500Y-30102119D01*
X74211690Y-30030690D01*
X74211690Y-29983071D01*
X74235500Y-29911642D01*
X74259309Y-29887833D01*
X74259309Y-29697357D02*
X74235500Y-29673547D01*
X74211690Y-29625928D01*
X74211690Y-29506880D01*
X74235500Y-29459261D01*
X74259309Y-29435452D01*
X74306928Y-29411642D01*
X74354547Y-29411642D01*
X74425976Y-29435452D01*
X74711690Y-29721166D01*
X74711690Y-29411642D01*
G04 #@! TO.C,J2*
X85705190Y-28868666D02*
X86062333Y-28868666D01*
X86133761Y-28892476D01*
X86181380Y-28940095D01*
X86205190Y-29011523D01*
X86205190Y-29059142D01*
X85752809Y-28654380D02*
X85729000Y-28630571D01*
X85705190Y-28582952D01*
X85705190Y-28463904D01*
X85729000Y-28416285D01*
X85752809Y-28392476D01*
X85800428Y-28368666D01*
X85848047Y-28368666D01*
X85919476Y-28392476D01*
X86205190Y-28678190D01*
X86205190Y-28368666D01*
G04 #@! TO.C,R1*
X82720666Y-29790190D02*
X82554000Y-29552095D01*
X82434952Y-29790190D02*
X82434952Y-29290190D01*
X82625428Y-29290190D01*
X82673047Y-29314000D01*
X82696857Y-29337809D01*
X82720666Y-29385428D01*
X82720666Y-29456857D01*
X82696857Y-29504476D01*
X82673047Y-29528285D01*
X82625428Y-29552095D01*
X82434952Y-29552095D01*
X83196857Y-29790190D02*
X82911142Y-29790190D01*
X83054000Y-29790190D02*
X83054000Y-29290190D01*
X83006380Y-29361619D01*
X82958761Y-29409238D01*
X82911142Y-29433047D01*
G04 #@! TO.C,R3*
X82720666Y-32330190D02*
X82554000Y-32092095D01*
X82434952Y-32330190D02*
X82434952Y-31830190D01*
X82625428Y-31830190D01*
X82673047Y-31854000D01*
X82696857Y-31877809D01*
X82720666Y-31925428D01*
X82720666Y-31996857D01*
X82696857Y-32044476D01*
X82673047Y-32068285D01*
X82625428Y-32092095D01*
X82434952Y-32092095D01*
X82887333Y-31830190D02*
X83196857Y-31830190D01*
X83030190Y-32020666D01*
X83101619Y-32020666D01*
X83149238Y-32044476D01*
X83173047Y-32068285D01*
X83196857Y-32115904D01*
X83196857Y-32234952D01*
X83173047Y-32282571D01*
X83149238Y-32306380D01*
X83101619Y-32330190D01*
X82958761Y-32330190D01*
X82911142Y-32306380D01*
X82887333Y-32282571D01*
G04 #@! TO.C,R12*
X82482571Y-37410190D02*
X82315904Y-37172095D01*
X82196857Y-37410190D02*
X82196857Y-36910190D01*
X82387333Y-36910190D01*
X82434952Y-36934000D01*
X82458761Y-36957809D01*
X82482571Y-37005428D01*
X82482571Y-37076857D01*
X82458761Y-37124476D01*
X82434952Y-37148285D01*
X82387333Y-37172095D01*
X82196857Y-37172095D01*
X82958761Y-37410190D02*
X82673047Y-37410190D01*
X82815904Y-37410190D02*
X82815904Y-36910190D01*
X82768285Y-36981619D01*
X82720666Y-37029238D01*
X82673047Y-37053047D01*
X83149238Y-36957809D02*
X83173047Y-36934000D01*
X83220666Y-36910190D01*
X83339714Y-36910190D01*
X83387333Y-36934000D01*
X83411142Y-36957809D01*
X83434952Y-37005428D01*
X83434952Y-37053047D01*
X83411142Y-37124476D01*
X83125428Y-37410190D01*
X83434952Y-37410190D01*
G04 #@! TO.C,R13*
X82482571Y-39950190D02*
X82315904Y-39712095D01*
X82196857Y-39950190D02*
X82196857Y-39450190D01*
X82387333Y-39450190D01*
X82434952Y-39474000D01*
X82458761Y-39497809D01*
X82482571Y-39545428D01*
X82482571Y-39616857D01*
X82458761Y-39664476D01*
X82434952Y-39688285D01*
X82387333Y-39712095D01*
X82196857Y-39712095D01*
X82958761Y-39950190D02*
X82673047Y-39950190D01*
X82815904Y-39950190D02*
X82815904Y-39450190D01*
X82768285Y-39521619D01*
X82720666Y-39569238D01*
X82673047Y-39593047D01*
X83125428Y-39450190D02*
X83434952Y-39450190D01*
X83268285Y-39640666D01*
X83339714Y-39640666D01*
X83387333Y-39664476D01*
X83411142Y-39688285D01*
X83434952Y-39735904D01*
X83434952Y-39854952D01*
X83411142Y-39902571D01*
X83387333Y-39926380D01*
X83339714Y-39950190D01*
X83196857Y-39950190D01*
X83149238Y-39926380D01*
X83125428Y-39902571D01*
G04 #@! TD*
M02*
