G04 #@! TF.GenerationSoftware,KiCad,Pcbnew,(5.1.4)-1*
G04 #@! TF.CreationDate,2020-07-21T12:04:11+10:00*
G04 #@! TF.ProjectId,STLink2,53544c69-6e6b-4322-9e6b-696361645f70,rev?*
G04 #@! TF.SameCoordinates,Original*
G04 #@! TF.FileFunction,Soldermask,Bot*
G04 #@! TF.FilePolarity,Negative*
%FSLAX46Y46*%
G04 Gerber Fmt 4.6, Leading zero omitted, Abs format (unit mm)*
G04 Created by KiCad (PCBNEW (5.1.4)-1) date 2020-07-21 12:04:11*
%MOMM*%
%LPD*%
G04 APERTURE LIST*
%ADD10C,0.100000*%
G04 #@! TA.AperFunction,NonConductor*
%ADD11C,0.150000*%
G04 #@! TD*
G04 APERTURE END LIST*
D10*
X43180000Y-41910000D02*
X43180000Y-42545000D01*
X43180000Y-46990000D02*
X43180000Y-41910000D01*
X86995000Y-46990000D02*
X43180000Y-46990000D01*
X86995000Y-24765000D02*
X86995000Y-46990000D01*
X43180000Y-24765000D02*
X86995000Y-24765000D01*
X43180000Y-42545000D02*
X43180000Y-24765000D01*
D11*
G36*
X57246626Y-42802037D02*
G01*
X57416465Y-42853557D01*
X57416467Y-42853558D01*
X57572989Y-42937221D01*
X57710186Y-43049814D01*
X57793448Y-43151271D01*
X57822778Y-43187009D01*
X57906443Y-43343534D01*
X57957963Y-43513373D01*
X57971000Y-43645742D01*
X57971000Y-43984257D01*
X57957963Y-44116626D01*
X57906443Y-44286466D01*
X57822778Y-44442991D01*
X57793448Y-44478729D01*
X57710186Y-44580186D01*
X57615250Y-44658097D01*
X57572991Y-44692778D01*
X57416466Y-44776443D01*
X57246627Y-44827963D01*
X57070000Y-44845359D01*
X56893374Y-44827963D01*
X56723535Y-44776443D01*
X56567010Y-44692778D01*
X56429815Y-44580185D01*
X56317222Y-44442991D01*
X56233557Y-44286466D01*
X56182037Y-44116627D01*
X56169000Y-43984258D01*
X56169000Y-43645743D01*
X56182037Y-43513374D01*
X56233557Y-43343535D01*
X56317222Y-43187010D01*
X56317223Y-43187009D01*
X56429814Y-43049814D01*
X56531271Y-42966552D01*
X56567009Y-42937222D01*
X56723534Y-42853557D01*
X56893373Y-42802037D01*
X57070000Y-42784641D01*
X57246626Y-42802037D01*
X57246626Y-42802037D01*
G37*
G36*
X59746626Y-42802037D02*
G01*
X59916465Y-42853557D01*
X59916467Y-42853558D01*
X60072989Y-42937221D01*
X60210186Y-43049814D01*
X60293448Y-43151271D01*
X60322778Y-43187009D01*
X60406443Y-43343534D01*
X60457963Y-43513373D01*
X60471000Y-43645742D01*
X60471000Y-43984257D01*
X60457963Y-44116626D01*
X60406443Y-44286466D01*
X60322778Y-44442991D01*
X60293448Y-44478729D01*
X60210186Y-44580186D01*
X60115250Y-44658097D01*
X60072991Y-44692778D01*
X59916466Y-44776443D01*
X59746627Y-44827963D01*
X59570000Y-44845359D01*
X59393374Y-44827963D01*
X59223535Y-44776443D01*
X59067010Y-44692778D01*
X58929815Y-44580185D01*
X58817222Y-44442991D01*
X58733557Y-44286466D01*
X58682037Y-44116627D01*
X58669000Y-43984258D01*
X58669000Y-43645743D01*
X58682037Y-43513374D01*
X58733557Y-43343535D01*
X58817222Y-43187010D01*
X58817223Y-43187009D01*
X58929814Y-43049814D01*
X59031271Y-42966552D01*
X59067009Y-42937222D01*
X59223534Y-42853557D01*
X59393373Y-42802037D01*
X59570000Y-42784641D01*
X59746626Y-42802037D01*
X59746626Y-42802037D01*
G37*
G36*
X54746626Y-42802037D02*
G01*
X54916465Y-42853557D01*
X54916467Y-42853558D01*
X55072989Y-42937221D01*
X55210186Y-43049814D01*
X55293448Y-43151271D01*
X55322778Y-43187009D01*
X55406443Y-43343534D01*
X55457963Y-43513373D01*
X55471000Y-43645742D01*
X55471000Y-43984257D01*
X55457963Y-44116626D01*
X55406443Y-44286466D01*
X55322778Y-44442991D01*
X55293448Y-44478729D01*
X55210186Y-44580186D01*
X55115250Y-44658097D01*
X55072991Y-44692778D01*
X54916466Y-44776443D01*
X54746627Y-44827963D01*
X54570000Y-44845359D01*
X54393374Y-44827963D01*
X54223535Y-44776443D01*
X54067010Y-44692778D01*
X53929815Y-44580185D01*
X53817222Y-44442991D01*
X53733557Y-44286466D01*
X53682037Y-44116627D01*
X53669000Y-43984258D01*
X53669000Y-43645743D01*
X53682037Y-43513374D01*
X53733557Y-43343535D01*
X53817222Y-43187010D01*
X53817223Y-43187009D01*
X53929814Y-43049814D01*
X54031271Y-42966552D01*
X54067009Y-42937222D01*
X54223534Y-42853557D01*
X54393373Y-42802037D01*
X54570000Y-42784641D01*
X54746626Y-42802037D01*
X54746626Y-42802037D01*
G37*
G36*
X52828600Y-42792989D02*
G01*
X52861652Y-42803015D01*
X52892103Y-42819292D01*
X52918799Y-42841201D01*
X52940708Y-42867897D01*
X52956985Y-42898348D01*
X52967011Y-42931400D01*
X52971000Y-42971903D01*
X52971000Y-44658097D01*
X52967011Y-44698600D01*
X52956985Y-44731652D01*
X52940708Y-44762103D01*
X52918799Y-44788799D01*
X52892103Y-44810708D01*
X52861652Y-44826985D01*
X52828600Y-44837011D01*
X52788097Y-44841000D01*
X51351903Y-44841000D01*
X51311400Y-44837011D01*
X51278348Y-44826985D01*
X51247897Y-44810708D01*
X51221201Y-44788799D01*
X51199292Y-44762103D01*
X51183015Y-44731652D01*
X51172989Y-44698600D01*
X51169000Y-44658097D01*
X51169000Y-42971903D01*
X51172989Y-42931400D01*
X51183015Y-42898348D01*
X51199292Y-42867897D01*
X51221201Y-42841201D01*
X51247897Y-42819292D01*
X51278348Y-42803015D01*
X51311400Y-42792989D01*
X51351903Y-42789000D01*
X52788097Y-42789000D01*
X52828600Y-42792989D01*
X52828600Y-42792989D01*
G37*
G36*
X47266228Y-40908483D02*
G01*
X47454922Y-40965723D01*
X47628815Y-41058671D01*
X47781239Y-41183761D01*
X47906329Y-41336185D01*
X47999277Y-41510078D01*
X48056517Y-41698772D01*
X48075843Y-41895000D01*
X48056517Y-42091228D01*
X47999277Y-42279922D01*
X47906329Y-42453815D01*
X47781239Y-42606239D01*
X47628815Y-42731329D01*
X47454922Y-42824277D01*
X47266228Y-42881517D01*
X47119175Y-42896000D01*
X45420825Y-42896000D01*
X45273772Y-42881517D01*
X45085078Y-42824277D01*
X44911185Y-42731329D01*
X44758761Y-42606239D01*
X44633671Y-42453815D01*
X44540723Y-42279922D01*
X44483483Y-42091228D01*
X44464157Y-41895000D01*
X44483483Y-41698772D01*
X44540723Y-41510078D01*
X44633671Y-41336185D01*
X44758761Y-41183761D01*
X44911185Y-41058671D01*
X45085078Y-40965723D01*
X45273772Y-40908483D01*
X45420825Y-40894000D01*
X47119175Y-40894000D01*
X47266228Y-40908483D01*
X47266228Y-40908483D01*
G37*
G36*
X86792000Y-41445000D02*
G01*
X84150000Y-41445000D01*
X84150000Y-40343000D01*
X86792000Y-40343000D01*
X86792000Y-41445000D01*
X86792000Y-41445000D01*
G37*
G36*
X46406601Y-37909397D02*
G01*
X46445305Y-37917096D01*
X46477340Y-37930365D01*
X46554680Y-37962400D01*
X46653115Y-38028173D01*
X46736827Y-38111885D01*
X46802600Y-38210320D01*
X46847904Y-38319696D01*
X46871000Y-38435805D01*
X46871000Y-38554195D01*
X46847904Y-38670304D01*
X46802600Y-38779680D01*
X46736827Y-38878115D01*
X46653115Y-38961827D01*
X46554680Y-39027600D01*
X46477340Y-39059635D01*
X46445305Y-39072904D01*
X46406601Y-39080603D01*
X46329195Y-39096000D01*
X46210805Y-39096000D01*
X46133399Y-39080603D01*
X46094695Y-39072904D01*
X46062660Y-39059635D01*
X45985320Y-39027600D01*
X45886885Y-38961827D01*
X45803173Y-38878115D01*
X45737400Y-38779680D01*
X45692096Y-38670304D01*
X45669000Y-38554195D01*
X45669000Y-38435805D01*
X45692096Y-38319696D01*
X45737400Y-38210320D01*
X45803173Y-38111885D01*
X45886885Y-38028173D01*
X45985320Y-37962400D01*
X46062660Y-37930365D01*
X46094695Y-37917096D01*
X46133399Y-37909397D01*
X46210805Y-37894000D01*
X46329195Y-37894000D01*
X46406601Y-37909397D01*
X46406601Y-37909397D01*
G37*
G36*
X86792000Y-38905000D02*
G01*
X84150000Y-38905000D01*
X84150000Y-37803000D01*
X86792000Y-37803000D01*
X86792000Y-38905000D01*
X86792000Y-38905000D01*
G37*
G36*
X86792000Y-36365000D02*
G01*
X84150000Y-36365000D01*
X84150000Y-35263000D01*
X86792000Y-35263000D01*
X86792000Y-36365000D01*
X86792000Y-36365000D01*
G37*
G36*
X46406601Y-33309397D02*
G01*
X46445305Y-33317096D01*
X46477340Y-33330365D01*
X46554680Y-33362400D01*
X46653115Y-33428173D01*
X46736827Y-33511885D01*
X46802600Y-33610320D01*
X46847904Y-33719696D01*
X46871000Y-33835805D01*
X46871000Y-33954195D01*
X46847904Y-34070304D01*
X46802600Y-34179680D01*
X46736827Y-34278115D01*
X46653115Y-34361827D01*
X46554680Y-34427600D01*
X46477340Y-34459635D01*
X46445305Y-34472904D01*
X46406601Y-34480603D01*
X46329195Y-34496000D01*
X46210805Y-34496000D01*
X46133399Y-34480603D01*
X46094695Y-34472904D01*
X46062660Y-34459635D01*
X45985320Y-34427600D01*
X45886885Y-34361827D01*
X45803173Y-34278115D01*
X45737400Y-34179680D01*
X45692096Y-34070304D01*
X45669000Y-33954195D01*
X45669000Y-33835805D01*
X45692096Y-33719696D01*
X45737400Y-33610320D01*
X45803173Y-33511885D01*
X45886885Y-33428173D01*
X45985320Y-33362400D01*
X46062660Y-33330365D01*
X46094695Y-33317096D01*
X46133399Y-33309397D01*
X46210805Y-33294000D01*
X46329195Y-33294000D01*
X46406601Y-33309397D01*
X46406601Y-33309397D01*
G37*
G36*
X86792000Y-33825000D02*
G01*
X84150000Y-33825000D01*
X84150000Y-32723000D01*
X86792000Y-32723000D01*
X86792000Y-33825000D01*
X86792000Y-33825000D01*
G37*
G36*
X47266228Y-29508483D02*
G01*
X47454922Y-29565723D01*
X47628815Y-29658671D01*
X47781239Y-29783761D01*
X47906329Y-29936185D01*
X47999277Y-30110078D01*
X48056517Y-30298772D01*
X48075843Y-30495000D01*
X48056517Y-30691228D01*
X47999277Y-30879922D01*
X47906329Y-31053815D01*
X47781239Y-31206239D01*
X47628815Y-31331329D01*
X47454922Y-31424277D01*
X47266228Y-31481517D01*
X47119175Y-31496000D01*
X45420825Y-31496000D01*
X45273772Y-31481517D01*
X45085078Y-31424277D01*
X44911185Y-31331329D01*
X44758761Y-31206239D01*
X44633671Y-31053815D01*
X44540723Y-30879922D01*
X44483483Y-30691228D01*
X44464157Y-30495000D01*
X44483483Y-30298772D01*
X44540723Y-30110078D01*
X44633671Y-29936185D01*
X44758761Y-29783761D01*
X44911185Y-29658671D01*
X45085078Y-29565723D01*
X45273772Y-29508483D01*
X45420825Y-29494000D01*
X47119175Y-29494000D01*
X47266228Y-29508483D01*
X47266228Y-29508483D01*
G37*
G36*
X86792000Y-31285000D02*
G01*
X84150000Y-31285000D01*
X84150000Y-30183000D01*
X86792000Y-30183000D01*
X86792000Y-31285000D01*
X86792000Y-31285000D01*
G37*
M02*
