M48
; DRILL file {KiCad (5.1.4)-1} date 7/21/2020 12:04:16 PM
; FORMAT={-:-/ absolute / inch / decimal}
; #@! TF.CreationDate,2020-07-21T12:04:16+10:00
; #@! TF.GenerationSoftware,Kicad,Pcbnew,(5.1.4)-1
FMAT,2
INCH
T1C0.0157
T2C0.0354
T3C0.0374
T4C0.0433
%
G90
G05
T1
X2.0425Y-1.4575
X2.05Y-1.725
X2.07Y-1.39
X2.1175Y-1.4575
X2.2406Y-1.314
X2.295Y-1.475
X2.295Y-1.595
X2.39Y-1.15
X2.4222Y-1.345
X2.4256Y-1.4523
X2.45Y-1.6
X2.5538Y-1.3062
X2.57Y-1.43
X2.571Y-1.174
X2.6636Y-1.3848
X2.6698Y-1.3426
X2.7458Y-1.1824
X2.7484Y-1.3328
X2.75Y-1.1
X2.75Y-1.465
X2.7545Y-1.688
X2.8Y-1.65
X2.825Y-1.7034
X2.8475Y-1.6425
X2.8525Y-1.579
X2.885Y-1.295
X2.925Y-1.55
X3.23Y-1.155
X3.232Y-1.557
X3.24Y-1.68
X3.315Y-1.13
T3
X2.05Y-1.725
X2.1484Y-1.725
X2.2469Y-1.725
X2.3453Y-1.725
T4
X1.8217Y-1.3344
X1.8217Y-1.5156
T2
G00X1.8531Y-1.2006
M15
G01X1.7902Y-1.2006
M16
G05
G00X1.8531Y-1.6494
M15
G01X1.7902Y-1.6494
M16
G05
T0
M30
